G04 #@! TF.GenerationSoftware,KiCad,Pcbnew,(5.1.2)-2*
G04 #@! TF.CreationDate,2019-06-16T00:53:24+01:00*
G04 #@! TF.ProjectId,AS5600-breakout,41533536-3030-42d6-9272-65616b6f7574,rev?*
G04 #@! TF.SameCoordinates,Original*
G04 #@! TF.FileFunction,Copper,L2,Bot*
G04 #@! TF.FilePolarity,Positive*
%FSLAX46Y46*%
G04 Gerber Fmt 4.6, Leading zero omitted, Abs format (unit mm)*
G04 Created by KiCad (PCBNEW (5.1.2)-2) date 2019-06-16 00:53:24*
%MOMM*%
%LPD*%
G04 APERTURE LIST*
%ADD10C,0.100000*%
%ADD11C,1.740000*%
%ADD12O,2.200000X1.740000*%
%ADD13C,1.600000*%
%ADD14O,1.600000X1.600000*%
%ADD15R,0.600000X1.900000*%
%ADD16R,1.600000X1.600000*%
%ADD17R,1.900000X0.600000*%
%ADD18O,1.700000X1.700000*%
%ADD19R,1.700000X1.700000*%
%ADD20C,1.700000*%
%ADD21C,0.600000*%
G04 APERTURE END LIST*
D10*
G36*
X100949999Y-100731207D02*
G01*
X100974322Y-100734814D01*
X100998174Y-100740789D01*
X101021325Y-100749073D01*
X101043553Y-100759586D01*
X101064644Y-100772227D01*
X101084394Y-100786875D01*
X101102613Y-100803387D01*
X101119125Y-100821606D01*
X101133773Y-100841356D01*
X101146414Y-100862447D01*
X101156927Y-100884675D01*
X101165211Y-100907826D01*
X101171186Y-100931678D01*
X101174793Y-100956001D01*
X101176000Y-100980560D01*
X101176000Y-102219440D01*
X101174793Y-102243999D01*
X101171186Y-102268322D01*
X101165211Y-102292174D01*
X101156927Y-102315325D01*
X101146414Y-102337553D01*
X101133773Y-102358644D01*
X101119125Y-102378394D01*
X101102613Y-102396613D01*
X101084394Y-102413125D01*
X101064644Y-102427773D01*
X101043553Y-102440414D01*
X101021325Y-102450927D01*
X100998174Y-102459211D01*
X100974322Y-102465186D01*
X100949999Y-102468793D01*
X100925440Y-102470000D01*
X99226560Y-102470000D01*
X99202001Y-102468793D01*
X99177678Y-102465186D01*
X99153826Y-102459211D01*
X99130675Y-102450927D01*
X99108447Y-102440414D01*
X99087356Y-102427773D01*
X99067606Y-102413125D01*
X99049387Y-102396613D01*
X99032875Y-102378394D01*
X99018227Y-102358644D01*
X99005586Y-102337553D01*
X98995073Y-102315325D01*
X98986789Y-102292174D01*
X98980814Y-102268322D01*
X98977207Y-102243999D01*
X98976000Y-102219440D01*
X98976000Y-100980560D01*
X98977207Y-100956001D01*
X98980814Y-100931678D01*
X98986789Y-100907826D01*
X98995073Y-100884675D01*
X99005586Y-100862447D01*
X99018227Y-100841356D01*
X99032875Y-100821606D01*
X99049387Y-100803387D01*
X99067606Y-100786875D01*
X99087356Y-100772227D01*
X99108447Y-100759586D01*
X99130675Y-100749073D01*
X99153826Y-100740789D01*
X99177678Y-100734814D01*
X99202001Y-100731207D01*
X99226560Y-100730000D01*
X100925440Y-100730000D01*
X100949999Y-100731207D01*
X100949999Y-100731207D01*
G37*
D11*
X100076000Y-101600000D03*
D12*
X100076000Y-99060000D03*
X100076000Y-96520000D03*
X100076000Y-93980000D03*
X100076000Y-91440000D03*
D13*
X91954000Y-92706000D03*
D14*
X91954000Y-100326000D03*
D15*
X106172000Y-95504000D03*
X107442000Y-95504000D03*
X108712000Y-95504000D03*
D13*
X106172000Y-91440000D03*
D16*
X108172000Y-91440000D03*
D13*
X113934000Y-91302000D03*
X113934000Y-96302000D03*
D17*
X105664000Y-98044000D03*
X105664000Y-99314000D03*
X105664000Y-100584000D03*
X105664000Y-101854000D03*
X110574000Y-101854000D03*
X110574000Y-100584000D03*
X110574000Y-99314000D03*
X110574000Y-98044000D03*
D18*
X115824000Y-99402000D03*
D19*
X113284000Y-99402000D03*
D14*
X95154000Y-99096000D03*
D13*
X95154000Y-91476000D03*
D20*
X112725695Y-102344305D03*
X103124000Y-95758000D03*
D21*
X115824000Y-98192000D02*
X113934000Y-96302000D01*
X115824000Y-99402000D02*
X115824000Y-98192000D01*
X106172000Y-93954000D02*
X106926000Y-93200000D01*
X106172000Y-95504000D02*
X106172000Y-93954000D01*
X106926000Y-93200000D02*
X110832000Y-93200000D01*
X110574000Y-96536000D02*
X112371000Y-94739000D01*
X110574000Y-98044000D02*
X110574000Y-96536000D01*
X110832000Y-93200000D02*
X112371000Y-94739000D01*
X112371000Y-94739000D02*
X113934000Y-96302000D01*
X93924000Y-92452000D02*
X95154000Y-91222000D01*
X91954000Y-92452000D02*
X93924000Y-92452000D01*
X105272000Y-95504000D02*
X103632000Y-93864000D01*
X106172000Y-95504000D02*
X105272000Y-95504000D01*
X103632000Y-93864000D02*
X103632000Y-92202000D01*
X102870000Y-91440000D02*
X100076000Y-91440000D01*
X103632000Y-92202000D02*
X102870000Y-91440000D01*
X95190000Y-91440000D02*
X95154000Y-91476000D01*
X100076000Y-91440000D02*
X95190000Y-91440000D01*
X109024000Y-101854000D02*
X108712000Y-101542000D01*
X110574000Y-101854000D02*
X109024000Y-101854000D01*
X108712000Y-97028000D02*
X108712000Y-95504000D01*
X108712000Y-101542000D02*
X108712000Y-97028000D01*
X112802630Y-91302000D02*
X110908630Y-89408000D01*
X113934000Y-91302000D02*
X112802630Y-91302000D01*
X106172000Y-90308630D02*
X106172000Y-91440000D01*
X107072630Y-89408000D02*
X106172000Y-90308630D01*
X110908630Y-89408000D02*
X107072630Y-89408000D01*
X101484001Y-102754001D02*
X100330000Y-101600000D01*
X101854000Y-103124000D02*
X101484001Y-102754001D01*
X107696000Y-103124000D02*
X101854000Y-103124000D01*
X109024000Y-101854000D02*
X108966000Y-101854000D01*
X108966000Y-101854000D02*
X107696000Y-103124000D01*
X105040630Y-91440000D02*
X102942590Y-89341960D01*
X106172000Y-91440000D02*
X105040630Y-91440000D01*
X102942590Y-89341960D02*
X92323920Y-89341960D01*
X92323920Y-89341960D02*
X89733120Y-91932760D01*
X89733120Y-91932760D02*
X89733120Y-101117400D01*
X89733120Y-101117400D02*
X91028520Y-102412800D01*
X98876000Y-101600000D02*
X100076000Y-101600000D01*
X98063200Y-102412800D02*
X98876000Y-101600000D01*
X91028520Y-102412800D02*
X98063200Y-102412800D01*
X113196000Y-99314000D02*
X113284000Y-99402000D01*
X110574000Y-99314000D02*
X113196000Y-99314000D01*
X113284000Y-100852000D02*
X113284000Y-99402000D01*
X113992000Y-101560000D02*
X113284000Y-100852000D01*
X109572000Y-91440000D02*
X108172000Y-91440000D01*
X111144002Y-91440000D02*
X109572000Y-91440000D01*
X115356000Y-101560000D02*
X113992000Y-101560000D01*
X115356000Y-101560000D02*
X116372000Y-101560000D01*
X116372000Y-101560000D02*
X117630000Y-100302000D01*
X117630000Y-97925998D02*
X113987001Y-94282999D01*
X117630000Y-100302000D02*
X117630000Y-97925998D01*
X113987001Y-94282999D02*
X111144002Y-91440000D01*
X101600000Y-99060000D02*
X100330000Y-99060000D01*
X105664000Y-100584000D02*
X103124000Y-100584000D01*
X103124000Y-100584000D02*
X101600000Y-99060000D01*
X92753999Y-101125999D02*
X95978001Y-101125999D01*
X91954000Y-100326000D02*
X92753999Y-101125999D01*
X98044000Y-99060000D02*
X100076000Y-99060000D01*
X95978001Y-101125999D02*
X98044000Y-99060000D01*
X105654000Y-99324000D02*
X105664000Y-99314000D01*
X105628000Y-99350000D02*
X105664000Y-99314000D01*
X100330000Y-96520000D02*
X101092000Y-96520000D01*
X103886000Y-99314000D02*
X105664000Y-99314000D01*
X101092000Y-96520000D02*
X103886000Y-99314000D01*
X95154000Y-99096000D02*
X97730000Y-96520000D01*
X97730000Y-96520000D02*
X100076000Y-96520000D01*
X110574000Y-100584000D02*
X111634002Y-100584000D01*
X111634002Y-100584000D02*
X112124001Y-101073999D01*
X112124001Y-101073999D02*
X112124001Y-101742611D01*
X112124001Y-101742611D02*
X112725695Y-102344305D01*
X102274001Y-94908001D02*
X103124000Y-95758000D01*
X101346000Y-93980000D02*
X103124000Y-95758000D01*
X100076000Y-93980000D02*
X101346000Y-93980000D01*
X107214000Y-98044000D02*
X105664000Y-98044000D01*
X107442000Y-97816000D02*
X107214000Y-98044000D01*
X107442000Y-95504000D02*
X107442000Y-97816000D01*
M02*
