%
M48
METRIC,000.000
T01C2.20
T10C0.80
T11C1.00
%
T01
X015747Y002896
X015747Y021692
X022394Y025081
X022394Y043878
T10
X017525Y017374
X025287Y017512
X025287Y012512
X006507Y017338
X006507Y009718
X003307Y016108
X003307Y008488
X019525Y017374
X024171Y039560
X031933Y039697
X031933Y034697
X013153Y039524
X013153Y031903
X009953Y038294
X009953Y030674
X026171Y039560
T11
X014477Y013056
X024079Y006470
X011429Y017374
X011429Y014834
X011429Y012294
X011429Y009754
X011429Y007214
X024637Y009412
X027177Y009412
X021123Y035242
X030726Y028656
X018075Y039560
X018075Y037019
X018075Y034480
X018075Y031939
X018075Y029400
X031284Y031598
X033824Y031598
M30