%MOIN*%
%OFA0B0*%
%FSLAX44Y44*%
%IPPOS*%
%LPD*%
%ADD10C,0*%
D10*
X00008816Y00008734D02*
X00008816Y00008734D01*
X00008985Y00008747D01*
X00009150Y00008784D01*
X00009308Y00008846D01*
X00009455Y00008930D01*
X00009588Y00009035D01*
X00009704Y00009159D01*
X00009800Y00009299D01*
X00009875Y00009451D01*
X00009926Y00009612D01*
X00009952Y00009780D01*
X00009954Y00009949D01*
X00009930Y00010117D01*
X00009882Y00010280D01*
X00009810Y00010433D01*
X00009716Y00010574D01*
X00014416Y00010574D01*
X00014416Y00016874D01*
X00010016Y00016874D01*
X00010058Y00017034D01*
X00010079Y00017197D01*
X00010078Y00017362D01*
X00010056Y00017526D01*
X00010013Y00017685D01*
X00009949Y00017837D01*
X00009866Y00017979D01*
X00009766Y00018110D01*
X00009649Y00018226D01*
X00009518Y00018327D01*
X00009375Y00018409D01*
X00009223Y00018472D01*
X00009064Y00018515D01*
X00008900Y00018536D01*
X00008735Y00018537D01*
X00008572Y00018515D01*
X00008412Y00018473D01*
X00008260Y00018410D01*
X00008117Y00018328D01*
X00007986Y00018229D01*
X00007869Y00018113D01*
X00007768Y00017982D01*
X00007685Y00017840D01*
X00007621Y00017688D01*
X00007577Y00017529D01*
X00007554Y00017366D01*
X00007553Y00017201D01*
X00007574Y00017037D01*
X00007615Y00016878D01*
X00002616Y00016874D01*
X00002616Y00010574D01*
X00007916Y00010574D01*
X00007822Y00010433D01*
X00007750Y00010280D01*
X00007702Y00010117D01*
X00007678Y00009949D01*
X00007680Y00009780D01*
X00007706Y00009612D01*
X00007757Y00009451D01*
X00007832Y00009299D01*
X00007928Y00009159D01*
X00008044Y00009035D01*
X00008177Y00008930D01*
X00008324Y00008846D01*
X00008482Y00008784D01*
X00008647Y00008747D01*
X00008816Y00008734D01*
X00006199Y00000000D02*
X00006199Y00000000D01*
X00006369Y00000012D01*
X00006534Y00000050D01*
X00006692Y00000111D01*
X00006839Y00000196D01*
X00006972Y00000301D01*
X00007087Y00000424D01*
X00007184Y00000564D01*
X00007258Y00000716D01*
X00007309Y00000878D01*
X00007336Y00001045D01*
X00007337Y00001215D01*
X00007313Y00001383D01*
X00007265Y00001545D01*
X00007193Y00001699D01*
X00007099Y00001840D01*
X00011799Y00001840D01*
X00011799Y00008140D01*
X00007399Y00008140D01*
X00007441Y00008299D01*
X00007462Y00008463D01*
X00007461Y00008628D01*
X00007439Y00008791D01*
X00007396Y00008950D01*
X00007332Y00009102D01*
X00007250Y00009245D01*
X00007149Y00009375D01*
X00007032Y00009492D01*
X00006901Y00009592D01*
X00006759Y00009674D01*
X00006606Y00009737D01*
X00006447Y00009780D01*
X00006284Y00009802D01*
X00006119Y00009802D01*
X00005955Y00009781D01*
X00005796Y00009738D01*
X00005643Y00009676D01*
X00005500Y00009594D01*
X00005369Y00009494D01*
X00005252Y00009378D01*
X00005151Y00009248D01*
X00005068Y00009105D01*
X00005004Y00008953D01*
X00004960Y00008794D01*
X00004938Y00008631D01*
X00004937Y00008466D01*
X00004957Y00008303D01*
X00004998Y00008143D01*
X00000000Y00008140D01*
X00000000Y00001840D01*
X00005299Y00001840D01*
X00005206Y00001699D01*
X00005134Y00001545D01*
X00005085Y00001383D01*
X00005062Y00001215D01*
X00005063Y00001045D01*
X00005090Y00000878D01*
X00005141Y00000716D01*
X00005215Y00000564D01*
X00005312Y00000424D01*
X00005427Y00000301D01*
X00005560Y00000196D01*
X00005707Y00000111D01*
X00005865Y00000050D01*
X00006030Y00000012D01*
X00006199Y00000000D01*
M02*