%MOIN*%
%OFA0B0*%
%FSLAX46Y46*%
%IPPOS*%
%LPD*%
%ADD10C,0.0039370078740157488*%
%ADD11C,0.068503937007874022*%
%ADD12O,0.086614173228346469X0.068503937007874022*%
%ADD13C,0.062992125984251982*%
%ADD14O,0.062992125984251982X0.062992125984251982*%
%ADD15R,0.023622047244094488X0.074803149606299218*%
%ADD16R,0.062992125984251982X0.062992125984251982*%
%ADD17R,0.074803149606299218X0.023622047244094488*%
%ADD18O,0.066929133858267723X0.066929133858267723*%
%ADD19R,0.066929133858267723X0.066929133858267723*%
%ADD20C,0.066929133858267723*%
%ADD21C,0.023622047244094488*%
%ADD32C,0.005905511811023622*%
%ADD33C,0.0039370078740157488*%
%ADD34C,0.068503937007874022*%
%ADD35O,0.086614173228346469X0.068503937007874022*%
%ADD36C,0.062992125984251982*%
%ADD37O,0.062992125984251982X0.062992125984251982*%
%ADD38R,0.023622047244094488X0.074803149606299218*%
%ADD39R,0.062992125984251982X0.062992125984251982*%
%ADD40R,0.074803149606299218X0.023622047244094488*%
%ADD41O,0.066929133858267723X0.066929133858267723*%
%ADD42R,0.066929133858267723X0.066929133858267723*%
%ADD43C,0.066929133858267723*%
%ADD44C,0.023622047244094488*%
%ADD45C,0.005905511811023622*%
D10*
G36*
X0000484409Y0000318221D02*
G01*
X0000485366Y0000318079D01*
X0000486305Y0000317844D01*
X0000487217Y0000317518D01*
X0000488092Y0000317104D01*
X0000488922Y0000316606D01*
X0000489700Y0000316030D01*
X0000490417Y0000315380D01*
X0000491067Y0000314662D01*
X0000491644Y0000313885D01*
X0000492142Y0000313054D01*
X0000492556Y0000312179D01*
X0000492882Y0000311268D01*
X0000493117Y0000310329D01*
X0000493259Y0000309371D01*
X0000493306Y0000308404D01*
X0000493306Y0000259629D01*
X0000493259Y0000258663D01*
X0000493117Y0000257705D01*
X0000492882Y0000256766D01*
X0000492556Y0000255854D01*
X0000492142Y0000254979D01*
X0000491644Y0000254149D01*
X0000491067Y0000253371D01*
X0000490417Y0000252654D01*
X0000489700Y0000252004D01*
X0000488922Y0000251427D01*
X0000488092Y0000250930D01*
X0000487217Y0000250516D01*
X0000486305Y0000250190D01*
X0000485366Y0000249954D01*
X0000484409Y0000249812D01*
X0000483442Y0000249765D01*
X0000416557Y0000249765D01*
X0000415590Y0000249812D01*
X0000414632Y0000249954D01*
X0000413693Y0000250190D01*
X0000412782Y0000250516D01*
X0000411907Y0000250930D01*
X0000411076Y0000251427D01*
X0000410299Y0000252004D01*
X0000409582Y0000252654D01*
X0000408931Y0000253371D01*
X0000408355Y0000254149D01*
X0000407857Y0000254979D01*
X0000407443Y0000255854D01*
X0000407117Y0000256766D01*
X0000406882Y0000257705D01*
X0000406740Y0000258663D01*
X0000406692Y0000259629D01*
X0000406692Y0000308404D01*
X0000406740Y0000309371D01*
X0000406882Y0000310329D01*
X0000407117Y0000311268D01*
X0000407443Y0000312179D01*
X0000407857Y0000313054D01*
X0000408355Y0000313885D01*
X0000408931Y0000314662D01*
X0000409582Y0000315380D01*
X0000410299Y0000316030D01*
X0000411076Y0000316606D01*
X0000411907Y0000317104D01*
X0000412782Y0000317518D01*
X0000413693Y0000317844D01*
X0000414632Y0000318079D01*
X0000415590Y0000318221D01*
X0000416557Y0000318269D01*
X0000483442Y0000318269D01*
X0000484409Y0000318221D01*
X0000484409Y0000318221D01*
G37*
D11*
X0000449999Y0000284017D03*
D12*
X0000449999Y0000384017D03*
X0000449999Y0000484017D03*
X0000449999Y0000584017D03*
X0000449999Y0000684017D03*
D13*
X0000130236Y0000634174D03*
D14*
X0000130236Y0000334174D03*
D15*
X0000689999Y0000524017D03*
X0000739999Y0000524017D03*
X0000789999Y0000524017D03*
D13*
X0000689999Y0000684017D03*
D16*
X0000768740Y0000684017D03*
D13*
X0000995590Y0000689450D03*
X0000995590Y0000492600D03*
D17*
X0000669999Y0000424017D03*
X0000669999Y0000374017D03*
X0000669999Y0000324017D03*
X0000669999Y0000274017D03*
X0000863306Y0000274017D03*
X0000863306Y0000324017D03*
X0000863306Y0000374017D03*
X0000863306Y0000424017D03*
D18*
X0001069999Y0000370552D03*
D19*
X0000969999Y0000370552D03*
D14*
X0000256220Y0000382600D03*
D13*
X0000256220Y0000682600D03*
D20*
X0000948019Y0000254714D03*
X0000569999Y0000514017D03*
D21*
X0001069999Y0000418190D02*
X0000995590Y0000492600D01*
X0001069999Y0000370552D02*
X0001069999Y0000418190D01*
X0000689999Y0000585040D02*
X0000719684Y0000614726D01*
X0000689999Y0000524017D02*
X0000689999Y0000585040D01*
X0000719684Y0000614726D02*
X0000873464Y0000614726D01*
X0000863306Y0000483387D02*
X0000934054Y0000554135D01*
X0000863306Y0000424017D02*
X0000863306Y0000483387D01*
X0000873464Y0000614726D02*
X0000934054Y0000554135D01*
X0000934054Y0000554135D02*
X0000995590Y0000492600D01*
X0000207795Y0000644174D02*
X0000256220Y0000692600D01*
X0000130236Y0000644174D02*
X0000207795Y0000644174D01*
X0000654566Y0000524017D02*
X0000589999Y0000588584D01*
X0000689999Y0000524017D02*
X0000654566Y0000524017D01*
X0000589999Y0000588584D02*
X0000589999Y0000654017D01*
X0000559999Y0000684017D02*
X0000449999Y0000684017D01*
X0000589999Y0000654017D02*
X0000559999Y0000684017D01*
X0000257637Y0000684017D02*
X0000256220Y0000682600D01*
X0000449999Y0000684017D02*
X0000257637Y0000684017D01*
X0000802283Y0000274017D02*
X0000789999Y0000286300D01*
X0000863306Y0000274017D02*
X0000802283Y0000274017D01*
X0000789999Y0000464017D02*
X0000789999Y0000524017D01*
X0000789999Y0000286300D02*
X0000789999Y0000464017D01*
X0000951048Y0000689450D02*
X0000876481Y0000764017D01*
X0000995590Y0000689450D02*
X0000951048Y0000689450D01*
X0000689999Y0000728559D02*
X0000689999Y0000684017D01*
X0000725457Y0000764017D02*
X0000689999Y0000728559D01*
X0000876481Y0000764017D02*
X0000725457Y0000764017D01*
X0000505432Y0000238584D02*
X0000459999Y0000284017D01*
X0000519999Y0000224017D02*
X0000505432Y0000238584D01*
X0000749999Y0000224017D02*
X0000519999Y0000224017D01*
X0000802283Y0000274017D02*
X0000799999Y0000274017D01*
X0000799999Y0000274017D02*
X0000749999Y0000224017D01*
X0000645457Y0000684017D02*
X0000562857Y0000766617D01*
X0000689999Y0000684017D02*
X0000645457Y0000684017D01*
X0000562857Y0000766617D02*
X0000144799Y0000766617D01*
X0000144799Y0000766617D02*
X0000042799Y0000664617D01*
X0000042799Y0000664617D02*
X0000042799Y0000303017D01*
X0000042799Y0000303017D02*
X0000093799Y0000252017D01*
X0000402755Y0000284017D02*
X0000449999Y0000284017D01*
X0000370755Y0000252017D02*
X0000402755Y0000284017D01*
X0000093799Y0000252017D02*
X0000370755Y0000252017D01*
X0000966535Y0000374017D02*
X0000969999Y0000370552D01*
X0000863306Y0000374017D02*
X0000966535Y0000374017D01*
X0000969999Y0000313466D02*
X0000969999Y0000370552D01*
X0000997873Y0000285592D02*
X0000969999Y0000313466D01*
X0000823858Y0000684017D02*
X0000768740Y0000684017D01*
X0000885747Y0000684017D02*
X0000823858Y0000684017D01*
X0001051574Y0000285592D02*
X0000997873Y0000285592D01*
X0001051574Y0000285592D02*
X0001091574Y0000285592D01*
X0001091574Y0000285592D02*
X0001141102Y0000335119D01*
X0001141102Y0000428663D02*
X0000997677Y0000572088D01*
X0001141102Y0000335119D02*
X0001141102Y0000428663D01*
X0000997677Y0000572088D02*
X0000885747Y0000684017D01*
X0000509999Y0000384017D02*
X0000459999Y0000384017D01*
X0000669999Y0000324017D02*
X0000569999Y0000324017D01*
X0000569999Y0000324017D02*
X0000509999Y0000384017D01*
X0000161732Y0000302678D02*
X0000288661Y0000302678D01*
X0000130236Y0000334174D02*
X0000161732Y0000302678D01*
X0000369999Y0000384017D02*
X0000449999Y0000384017D01*
X0000288661Y0000302678D02*
X0000369999Y0000384017D01*
X0000669606Y0000373623D02*
X0000669999Y0000374017D01*
X0000668582Y0000372600D02*
X0000669999Y0000374017D01*
X0000459999Y0000484017D02*
X0000489999Y0000484017D01*
X0000599999Y0000374017D02*
X0000669999Y0000374017D01*
X0000489999Y0000484017D02*
X0000599999Y0000374017D01*
X0000256220Y0000382600D02*
X0000357637Y0000484017D01*
X0000357637Y0000484017D02*
X0000449999Y0000484017D01*
X0000863306Y0000324017D02*
X0000905039Y0000324017D01*
X0000905039Y0000324017D02*
X0000924330Y0000304726D01*
X0000924330Y0000304726D02*
X0000924330Y0000278402D01*
X0000924330Y0000278402D02*
X0000948019Y0000254714D01*
X0000536535Y0000547481D02*
X0000569999Y0000514017D01*
X0000499999Y0000584017D02*
X0000569999Y0000514017D01*
X0000449999Y0000584017D02*
X0000499999Y0000584017D01*
X0000731023Y0000424017D02*
X0000669999Y0000424017D01*
X0000739999Y0000432993D02*
X0000731023Y0000424017D01*
X0000739999Y0000524017D02*
X0000739999Y0000432993D01*
G04 next file*
G04 #@! TF.GenerationSoftware,KiCad,Pcbnew,(5.1.2)-2*
G04 #@! TF.CreationDate,2019-06-16T00:53:31+01:00*
G04 #@! TF.ProjectId,AS5600-breakout,41533536-3030-42d6-9272-65616b6f7574,rev?*
G04 #@! TF.SameCoordinates,Original*
G04 #@! TF.FileFunction,Profile,NP*
G04 Gerber Fmt 4.6, Leading zero omitted, Abs format (unit mm)*
G04 Created by KiCad (PCBNEW (5.1.2)-2) date 2019-06-16 00:53:31*
G04 APERTURE LIST*
G04 APERTURE END LIST*
D32*
X0000739999Y0000814017D02*
X0001179999Y0000814017D01*
X0000499891Y0000814343D02*
X0000000000Y0000814017D01*
X0000499891Y0000814343D02*
G75*
G02X0000739999Y0000814017I0000120108J0000039674D01*
G01*
X0000709999Y0000184017D02*
G75*
G02X0000529999Y0000184017I-0000089999J-0000069999D01*
G01*
X0000509999Y0000184017D02*
X0000499999Y0000184017D01*
X0000509999Y0000184017D02*
X0000529999Y0000184017D01*
X0000000000Y0000184017D02*
X0000000000Y0000814017D01*
X0000499999Y0000184017D02*
X0000000000Y0000184017D01*
X0001179999Y0000184017D02*
X0000709999Y0000184017D01*
X0001179999Y0000814017D02*
X0001179999Y0000184017D01*
G04 next file*
G04 #@! TF.GenerationSoftware,KiCad,Pcbnew,(5.1.2)-2*
G04 #@! TF.CreationDate,2019-06-16T00:53:24+01:00*
G04 #@! TF.ProjectId,AS5600-breakout,41533536-3030-42d6-9272-65616b6f7574,rev?*
G04 #@! TF.SameCoordinates,Original*
G04 #@! TF.FileFunction,Copper,L2,Bot*
G04 #@! TF.FilePolarity,Positive*
G04 Gerber Fmt 4.6, Leading zero omitted, Abs format (unit mm)*
G04 Created by KiCad (PCBNEW (5.1.2)-2) date 2019-06-16 00:53:24*
G04 APERTURE LIST*
G04 APERTURE END LIST*
D33*
G36*
X0000746062Y0001191684D02*
G01*
X0000747020Y0001191542D01*
X0000747959Y0001191307D01*
X0000748871Y0001190981D01*
X0000749746Y0001190567D01*
X0000750576Y0001190069D01*
X0000751354Y0001189493D01*
X0000752071Y0001188843D01*
X0000752721Y0001188125D01*
X0000753298Y0001187348D01*
X0000753795Y0001186517D01*
X0000754209Y0001185642D01*
X0000754535Y0001184731D01*
X0000754771Y0001183792D01*
X0000754913Y0001182834D01*
X0000754960Y0001181867D01*
X0000754960Y0001133092D01*
X0000754913Y0001132125D01*
X0000754771Y0001131168D01*
X0000754535Y0001130229D01*
X0000754209Y0001129317D01*
X0000753795Y0001128442D01*
X0000753298Y0001127612D01*
X0000752721Y0001126834D01*
X0000752071Y0001126117D01*
X0000751354Y0001125467D01*
X0000750576Y0001124890D01*
X0000749746Y0001124393D01*
X0000748871Y0001123979D01*
X0000747959Y0001123653D01*
X0000747020Y0001123417D01*
X0000746062Y0001123275D01*
X0000745096Y0001123228D01*
X0000678211Y0001123228D01*
X0000677244Y0001123275D01*
X0000676286Y0001123417D01*
X0000675347Y0001123653D01*
X0000674435Y0001123979D01*
X0000673560Y0001124393D01*
X0000672730Y0001124890D01*
X0000671952Y0001125467D01*
X0000671235Y0001126117D01*
X0000670585Y0001126834D01*
X0000670008Y0001127612D01*
X0000669511Y0001128442D01*
X0000669097Y0001129317D01*
X0000668771Y0001130229D01*
X0000668535Y0001131168D01*
X0000668393Y0001132125D01*
X0000668346Y0001133092D01*
X0000668346Y0001181867D01*
X0000668393Y0001182834D01*
X0000668535Y0001183792D01*
X0000668771Y0001184731D01*
X0000669097Y0001185642D01*
X0000669511Y0001186517D01*
X0000670008Y0001187348D01*
X0000670585Y0001188125D01*
X0000671235Y0001188843D01*
X0000671952Y0001189493D01*
X0000672730Y0001190069D01*
X0000673560Y0001190567D01*
X0000674435Y0001190981D01*
X0000675347Y0001191307D01*
X0000676286Y0001191542D01*
X0000677244Y0001191684D01*
X0000678211Y0001191732D01*
X0000745096Y0001191732D01*
X0000746062Y0001191684D01*
X0000746062Y0001191684D01*
G37*
D34*
X0000711653Y0001157480D03*
D35*
X0000711653Y0001257480D03*
X0000711653Y0001357480D03*
X0000711653Y0001457480D03*
X0000711653Y0001557480D03*
D36*
X0000391889Y0001507637D03*
D37*
X0000391889Y0001207637D03*
D38*
X0000951653Y0001397480D03*
X0001001653Y0001397480D03*
X0001051653Y0001397480D03*
D36*
X0000951653Y0001557480D03*
D39*
X0001030393Y0001557480D03*
D36*
X0001257244Y0001562913D03*
X0001257244Y0001366062D03*
D40*
X0000931653Y0001297480D03*
X0000931653Y0001247480D03*
X0000931653Y0001197480D03*
X0000931653Y0001147480D03*
X0001124960Y0001147480D03*
X0001124960Y0001197480D03*
X0001124960Y0001247480D03*
X0001124960Y0001297480D03*
D41*
X0001331653Y0001244015D03*
D42*
X0001231653Y0001244015D03*
D37*
X0000517873Y0001256062D03*
D36*
X0000517873Y0001556062D03*
D43*
X0001209673Y0001128176D03*
X0000831653Y0001387480D03*
D44*
X0001331653Y0001291653D02*
X0001257244Y0001366062D01*
X0001331653Y0001244015D02*
X0001331653Y0001291653D01*
X0000951653Y0001458503D02*
X0000981338Y0001488188D01*
X0000951653Y0001397480D02*
X0000951653Y0001458503D01*
X0000981338Y0001488188D02*
X0001135118Y0001488188D01*
X0001124960Y0001356850D02*
X0001195708Y0001427598D01*
X0001124960Y0001297480D02*
X0001124960Y0001356850D01*
X0001135118Y0001488188D02*
X0001195708Y0001427598D01*
X0001195708Y0001427598D02*
X0001257244Y0001366062D01*
X0000469448Y0001517637D02*
X0000517873Y0001566062D01*
X0000391889Y0001517637D02*
X0000469448Y0001517637D01*
X0000916220Y0001397480D02*
X0000851653Y0001462047D01*
X0000951653Y0001397480D02*
X0000916220Y0001397480D01*
X0000851653Y0001462047D02*
X0000851653Y0001527480D01*
X0000821653Y0001557480D02*
X0000711653Y0001557480D01*
X0000851653Y0001527480D02*
X0000821653Y0001557480D01*
X0000519291Y0001557480D02*
X0000517873Y0001556062D01*
X0000711653Y0001557480D02*
X0000519291Y0001557480D01*
X0001063937Y0001147480D02*
X0001051653Y0001159763D01*
X0001124960Y0001147480D02*
X0001063937Y0001147480D01*
X0001051653Y0001337480D02*
X0001051653Y0001397480D01*
X0001051653Y0001159763D02*
X0001051653Y0001337480D01*
X0001212701Y0001562913D02*
X0001138135Y0001637480D01*
X0001257244Y0001562913D02*
X0001212701Y0001562913D01*
X0000951653Y0001602022D02*
X0000951653Y0001557480D01*
X0000987111Y0001637480D02*
X0000951653Y0001602022D01*
X0001138135Y0001637480D02*
X0000987111Y0001637480D01*
X0000767086Y0001112047D02*
X0000721653Y0001157480D01*
X0000781653Y0001097480D02*
X0000767086Y0001112047D01*
X0001011653Y0001097480D02*
X0000781653Y0001097480D01*
X0001063937Y0001147480D02*
X0001061653Y0001147480D01*
X0001061653Y0001147480D02*
X0001011653Y0001097480D01*
X0000907111Y0001557480D02*
X0000824511Y0001640080D01*
X0000951653Y0001557480D02*
X0000907111Y0001557480D01*
X0000824511Y0001640080D02*
X0000406453Y0001640080D01*
X0000406453Y0001640080D02*
X0000304453Y0001538080D01*
X0000304453Y0001538080D02*
X0000304453Y0001176480D01*
X0000304453Y0001176480D02*
X0000355453Y0001125480D01*
X0000664409Y0001157480D02*
X0000711653Y0001157480D01*
X0000632409Y0001125480D02*
X0000664409Y0001157480D01*
X0000355453Y0001125480D02*
X0000632409Y0001125480D01*
X0001228188Y0001247480D02*
X0001231653Y0001244015D01*
X0001124960Y0001247480D02*
X0001228188Y0001247480D01*
X0001231653Y0001186929D02*
X0001231653Y0001244015D01*
X0001259527Y0001159055D02*
X0001231653Y0001186929D01*
X0001085511Y0001557480D02*
X0001030393Y0001557480D01*
X0001147401Y0001557480D02*
X0001085511Y0001557480D01*
X0001313228Y0001159055D02*
X0001259527Y0001159055D01*
X0001313228Y0001159055D02*
X0001353228Y0001159055D01*
X0001353228Y0001159055D02*
X0001402755Y0001208582D01*
X0001402755Y0001302126D02*
X0001259330Y0001445551D01*
X0001402755Y0001208582D02*
X0001402755Y0001302126D01*
X0001259330Y0001445551D02*
X0001147401Y0001557480D01*
X0000771653Y0001257480D02*
X0000721653Y0001257480D01*
X0000931653Y0001197480D02*
X0000831653Y0001197480D01*
X0000831653Y0001197480D02*
X0000771653Y0001257480D01*
X0000423385Y0001176141D02*
X0000550315Y0001176141D01*
X0000391889Y0001207637D02*
X0000423385Y0001176141D01*
X0000631653Y0001257480D02*
X0000711653Y0001257480D01*
X0000550315Y0001176141D02*
X0000631653Y0001257480D01*
X0000931259Y0001247086D02*
X0000931653Y0001247480D01*
X0000930236Y0001246062D02*
X0000931653Y0001247480D01*
X0000721653Y0001357480D02*
X0000751653Y0001357480D01*
X0000861653Y0001247480D02*
X0000931653Y0001247480D01*
X0000751653Y0001357480D02*
X0000861653Y0001247480D01*
X0000517873Y0001256062D02*
X0000619291Y0001357480D01*
X0000619291Y0001357480D02*
X0000711653Y0001357480D01*
X0001124960Y0001197480D02*
X0001166692Y0001197480D01*
X0001166692Y0001197480D02*
X0001185984Y0001178189D01*
X0001185984Y0001178189D02*
X0001185984Y0001151865D01*
X0001185984Y0001151865D02*
X0001209673Y0001128176D01*
X0000798189Y0001420944D02*
X0000831653Y0001387480D01*
X0000761653Y0001457480D02*
X0000831653Y0001387480D01*
X0000711653Y0001457480D02*
X0000761653Y0001457480D01*
X0000992677Y0001297480D02*
X0000931653Y0001297480D01*
X0001001653Y0001306456D02*
X0000992677Y0001297480D01*
X0001001653Y0001397480D02*
X0001001653Y0001306456D01*
G04 next file*
G04 #@! TF.GenerationSoftware,KiCad,Pcbnew,(5.1.2)-2*
G04 #@! TF.CreationDate,2019-06-16T00:53:31+01:00*
G04 #@! TF.ProjectId,AS5600-breakout,41533536-3030-42d6-9272-65616b6f7574,rev?*
G04 #@! TF.SameCoordinates,Original*
G04 #@! TF.FileFunction,Profile,NP*
G04 Gerber Fmt 4.6, Leading zero omitted, Abs format (unit mm)*
G04 Created by KiCad (PCBNEW (5.1.2)-2) date 2019-06-16 00:53:31*
G04 APERTURE LIST*
G04 APERTURE END LIST*
D45*
X0001001653Y0001687480D02*
X0001441653Y0001687480D01*
X0000761545Y0001687806D02*
X0000261653Y0001687480D01*
X0000761545Y0001687806D02*
G75*
G02X0001001653Y0001687480I0000120108J0000039674D01*
G01*
X0000971653Y0001057480D02*
G75*
G02X0000791653Y0001057480I-0000089999J-0000069999D01*
G01*
X0000771653Y0001057480D02*
X0000761653Y0001057480D01*
X0000771653Y0001057480D02*
X0000791653Y0001057480D01*
X0000261653Y0001057480D02*
X0000261653Y0001687480D01*
X0000761653Y0001057480D02*
X0000261653Y0001057480D01*
X0001441653Y0001057480D02*
X0000971653Y0001057480D01*
X0001441653Y0001687480D02*
X0001441653Y0001057480D01*
M02*