M48
;DRILL file {KiCad (5.0.2)-1} date 28/09/2019 03:40:14
;FORMAT={-:-/ absolute / metric / decimal}
FMAT,2
METRIC,TZ
T1C0.800
T2C1.000
%
G90
G05
T1
X60.907Y-92.465
X60.907Y-107.451
X71.575Y-94.243
X71.575Y-98.815
X106.373Y-142.249
X111.961Y-142.249
X112.469Y-90.433
X112.469Y-102.625
X112.469Y-118.881
X112.469Y-123.961
X77.417Y-142.757
X82.417Y-142.757
X61.669Y-142.249
X61.669Y-147.329
X91.387Y-129.041
X96.387Y-129.041
X77.417Y-139.455
X82.417Y-139.455
X86.307Y-135.391
X91.307Y-135.391
X71.067Y-142.249
X71.067Y-147.329
X77.497Y-136.153
X82.497Y-136.153
X107.389Y-118.881
X107.389Y-123.961
X88.847Y-132.089
X93.847Y-132.089
T2
X74.623Y-153.269
X77.163Y-153.269
X79.703Y-153.269
X82.243Y-153.269
X116.279Y-153.171
X118.819Y-153.171
X121.359Y-153.171
X56.589Y-130.819
X56.589Y-133.359
X56.589Y-135.899
X56.589Y-138.439
X56.589Y-140.979
X56.589Y-143.519
X86.307Y-153.269
X88.847Y-153.269
X91.387Y-153.269
X93.927Y-153.269
X56.589Y-97.037
X56.589Y-99.577
X56.589Y-102.117
X56.589Y-104.657
X56.589Y-107.197
X56.589Y-109.737
X56.589Y-112.277
X56.589Y-114.817
X98.753Y-153.171
X101.293Y-153.171
X103.833Y-153.171
X106.373Y-153.171
X108.913Y-153.171
X111.453Y-153.171
X56.589Y-77.987
X56.589Y-80.527
X56.589Y-83.067
X56.589Y-85.607
X65.225Y-99.069
X65.225Y-101.609
X65.225Y-104.149
X65.225Y-106.689
X65.225Y-109.229
X65.225Y-111.769
X65.225Y-114.309
X65.225Y-116.849
X65.225Y-119.389
X65.225Y-121.929
X65.225Y-124.469
X65.225Y-127.009
X65.225Y-129.549
X65.225Y-132.089
X65.225Y-134.629
X65.225Y-137.169
X65.225Y-139.709
X65.225Y-142.249
X65.225Y-144.789
X67.765Y-99.069
X67.765Y-101.609
X67.765Y-104.149
X67.765Y-106.689
X67.765Y-109.229
X67.765Y-111.769
X67.765Y-114.309
X67.765Y-116.849
X67.765Y-119.389
X67.765Y-121.929
X67.765Y-124.469
X67.765Y-127.009
X67.765Y-129.549
X67.765Y-132.089
X67.765Y-134.629
X67.765Y-137.169
X67.765Y-139.709
X67.765Y-142.249
X67.765Y-144.789
X126.185Y-99.069
X126.185Y-101.609
X126.185Y-104.149
X126.185Y-106.689
X126.185Y-109.229
X126.185Y-111.769
X126.185Y-114.309
X126.185Y-116.849
X126.185Y-119.389
X126.185Y-121.929
X126.185Y-124.469
X126.185Y-127.009
X126.185Y-129.549
X126.185Y-132.089
X126.185Y-134.629
X126.185Y-137.169
X126.185Y-139.709
X126.185Y-142.249
X126.185Y-144.789
X128.725Y-99.069
X128.725Y-101.609
X128.725Y-104.149
X128.725Y-106.689
X128.725Y-109.229
X128.725Y-111.769
X128.725Y-114.309
X128.725Y-116.849
X128.725Y-119.389
X128.725Y-121.929
X128.725Y-124.469
X128.725Y-127.009
X128.725Y-129.549
X128.725Y-132.089
X128.725Y-134.629
X128.725Y-137.169
X128.725Y-139.709
X128.725Y-142.249
X128.725Y-144.789
T0
M30
