G04 #@! TF.GenerationSoftware,KiCad,Pcbnew,(5.0.2)-1*
G04 #@! TF.CreationDate,2019-09-28T03:40:06+01:00*
G04 #@! TF.ProjectId,mainboard,6d61696e-626f-4617-9264-2e6b69636164,rev?*
G04 #@! TF.SameCoordinates,Original*
G04 #@! TF.FileFunction,Copper,L2,Bot*
G04 #@! TF.FilePolarity,Positive*
%FSLAX46Y46*%
G04 Gerber Fmt 4.6, Leading zero omitted, Abs format (unit mm)*
G04 Created by KiCad (PCBNEW (5.0.2)-1) date 28/09/2019 03:40:06*
%MOMM*%
%LPD*%
G01*
G04 APERTURE LIST*
G04 #@! TA.AperFunction,ComponentPad*
%ADD10O,1.700000X1.700000*%
G04 #@! TD*
G04 #@! TA.AperFunction,ComponentPad*
%ADD11R,1.700000X1.700000*%
G04 #@! TD*
G04 #@! TA.AperFunction,ComponentPad*
%ADD12C,1.600000*%
G04 #@! TD*
G04 #@! TA.AperFunction,ComponentPad*
%ADD13C,1.400000*%
G04 #@! TD*
G04 #@! TA.AperFunction,ComponentPad*
%ADD14O,1.400000X1.400000*%
G04 #@! TD*
G04 #@! TA.AperFunction,Conductor*
%ADD15C,0.100000*%
G04 #@! TD*
G04 #@! TA.AperFunction,ComponentPad*
%ADD16C,1.740000*%
G04 #@! TD*
G04 #@! TA.AperFunction,ComponentPad*
%ADD17O,2.200000X1.740000*%
G04 #@! TD*
G04 #@! TA.AperFunction,ComponentPad*
%ADD18O,1.740000X2.200000*%
G04 #@! TD*
G04 #@! TA.AperFunction,ViaPad*
%ADD19C,1.700000*%
G04 #@! TD*
G04 #@! TA.AperFunction,Conductor*
%ADD20C,0.600000*%
G04 #@! TD*
G04 APERTURE END LIST*
D10*
G04 #@! TO.P,U1,PC0*
G04 #@! TO.N,Net-(U1-PadPC0)*
X126185307Y-144788880D03*
G04 #@! TO.P,U1,PC3*
G04 #@! TO.N,Net-(U1-PadPC3)*
X128725307Y-144788880D03*
G04 #@! TO.P,U1,PC1*
G04 #@! TO.N,Net-(U1-PadPC1)*
X126185307Y-142248880D03*
G04 #@! TO.P,U1,PC2*
G04 #@! TO.N,Net-(U1-PadPC2)*
X128725307Y-142248880D03*
G04 #@! TO.P,U1,PB0*
G04 #@! TO.N,Net-(U1-PadPB0)*
X126185307Y-139708880D03*
G04 #@! TO.P,U1,VBAT*
G04 #@! TO.N,Net-(U1-PadVBAT)*
X128725307Y-139708880D03*
G04 #@! TO.P,U1,PA4*
G04 #@! TO.N,Net-(U1-PadPA4)*
X126185307Y-137168880D03*
G04 #@! TO.P,U1,PH1*
G04 #@! TO.N,Net-(U1-PadPH1)*
X128725307Y-137168880D03*
G04 #@! TO.P,U1,PA1*
G04 #@! TO.N,hoverboard_serial_Tx*
X126185307Y-134628880D03*
G04 #@! TO.P,U1,PH0*
G04 #@! TO.N,Net-(U1-PadPH0)*
X128725307Y-134628880D03*
G04 #@! TO.P,U1,PA0*
G04 #@! TO.N,hoverboard_serial_Rx*
X126185307Y-132088880D03*
G04 #@! TO.P,U1,PC15*
G04 #@! TO.N,Net-(U1-PadPC15)*
X128725307Y-132088880D03*
G04 #@! TO.P,U1,NC*
G04 #@! TO.N,N/C*
X126185307Y-129548880D03*
G04 #@! TO.P,U1,PC14*
G04 #@! TO.N,Net-(U1-PadPC14)*
X128725307Y-129548880D03*
G04 #@! TO.P,U1,VIN*
G04 #@! TO.N,N/C*
X126185307Y-127008880D03*
G04 #@! TO.P,U1,PC13*
G04 #@! TO.N,Net-(U1-PadPC13)*
X128725307Y-127008880D03*
G04 #@! TO.P,U1,GND*
G04 #@! TO.N,GND*
X126185307Y-124468880D03*
G04 #@! TO.P,U1,PB7*
G04 #@! TO.N,Net-(U1-PadPB7)*
X128725307Y-124468880D03*
G04 #@! TO.P,U1,GND*
G04 #@! TO.N,GND*
X126185307Y-121928880D03*
X128725307Y-121928880D03*
G04 #@! TO.P,U1,5V*
G04 #@! TO.N,+5V*
X126185307Y-119388880D03*
G04 #@! TO.P,U1,PA15*
G04 #@! TO.N,Net-(U1-PadPA15)*
X128725307Y-119388880D03*
G04 #@! TO.P,U1,3V3*
G04 #@! TO.N,N/C*
X126185307Y-116848880D03*
G04 #@! TO.P,U1,PA14*
G04 #@! TO.N,Net-(U1-PadPA14)*
X128725307Y-116848880D03*
G04 #@! TO.P,U1,RESET*
G04 #@! TO.N,N/C*
X126185307Y-114308880D03*
G04 #@! TO.P,U1,PA13*
G04 #@! TO.N,Net-(U1-PadPA13)*
X128725307Y-114308880D03*
G04 #@! TO.P,U1,IOREF*
G04 #@! TO.N,N/C*
X126185307Y-111768880D03*
G04 #@! TO.P,U1,NC*
X128725307Y-111768880D03*
X126185307Y-109228880D03*
X128725307Y-109228880D03*
G04 #@! TO.P,U1,GND*
G04 #@! TO.N,GND*
X126185307Y-106688880D03*
G04 #@! TO.P,U1,BOOT0*
G04 #@! TO.N,Net-(U1-PadBOOT0)*
X128725307Y-106688880D03*
G04 #@! TO.P,U1,E5V*
G04 #@! TO.N,N/C*
X126185307Y-104148880D03*
G04 #@! TO.P,U1,VDD*
G04 #@! TO.N,Net-(U1-PadVDD)*
X128725307Y-104148880D03*
G04 #@! TO.P,U1,PD2*
G04 #@! TO.N,bluetooth_serial_1_Tx*
X126185307Y-101608880D03*
G04 #@! TO.P,U1,PC12*
G04 #@! TO.N,bluetooth_serial_1_Rx*
X128725307Y-101608880D03*
G04 #@! TO.P,U1,PC11*
G04 #@! TO.N,serial3_Tx*
X126185307Y-99068880D03*
D11*
G04 #@! TO.P,U1,PC10*
G04 #@! TO.N,serial3_Rx*
X128725307Y-99068880D03*
D10*
G04 #@! TO.P,U1,PA5*
G04 #@! TO.N,Net-(U1-PadPA5)*
X67765307Y-111768880D03*
D11*
G04 #@! TO.P,U1,PC9*
G04 #@! TO.N,Net-(U1-PadPC9)*
X67765307Y-99068880D03*
D10*
G04 #@! TO.P,U1,PA11*
G04 #@! TO.N,Net-(U1-PadPA11)*
X65225307Y-114308880D03*
G04 #@! TO.P,U1,PA6*
G04 #@! TO.N,Net-(U1-PadPA6)*
X67765307Y-114308880D03*
G04 #@! TO.P,U1,GND*
G04 #@! TO.N,GND*
X67765307Y-109228880D03*
G04 #@! TO.P,U1,AVDD*
G04 #@! TO.N,N/C*
X67765307Y-106688880D03*
G04 #@! TO.P,U1,PC6*
G04 #@! TO.N,Net-(U1-PadPC6)*
X65225307Y-101608880D03*
G04 #@! TO.P,U1,NC*
G04 #@! TO.N,N/C*
X65225307Y-109228880D03*
G04 #@! TO.P,U1,PC5*
G04 #@! TO.N,Net-(U1-PadPC5)*
X65225307Y-104148880D03*
G04 #@! TO.P,U1,PA12*
G04 #@! TO.N,Net-(U1-PadPA12)*
X65225307Y-111768880D03*
G04 #@! TO.P,U1,U5V*
G04 #@! TO.N,N/C*
X65225307Y-106688880D03*
G04 #@! TO.P,U1,PB9*
G04 #@! TO.N,IMU_SDA*
X67765307Y-104148880D03*
G04 #@! TO.P,U1,PB8*
G04 #@! TO.N,IMU_SCL*
X67765307Y-101608880D03*
G04 #@! TO.P,U1,PC8*
G04 #@! TO.N,Net-(U1-PadPC8)*
X65225307Y-99068880D03*
G04 #@! TO.P,U1,PB5*
G04 #@! TO.N,L_hall_C_LPF*
X67765307Y-134628880D03*
G04 #@! TO.P,U1,AGND*
G04 #@! TO.N,N/C*
X65225307Y-137168880D03*
G04 #@! TO.P,U1,NC*
X65225307Y-142248880D03*
G04 #@! TO.P,U1,PB3*
G04 #@! TO.N,L_hall_B_LPF*
X67765307Y-137168880D03*
G04 #@! TO.P,U1,PB10*
G04 #@! TO.N,Net-(U1-PadPB10)*
X67765307Y-129548880D03*
G04 #@! TO.P,U1,GND*
G04 #@! TO.N,GND*
X65225307Y-121928880D03*
G04 #@! TO.P,U1,PB6*
G04 #@! TO.N,Net-(U1-PadPB6)*
X67765307Y-119388880D03*
G04 #@! TO.P,U1,PA8*
G04 #@! TO.N,R_hall_B_LPF*
X67765307Y-127008880D03*
G04 #@! TO.P,U1,PA7*
G04 #@! TO.N,Net-(U1-PadPA7)*
X67765307Y-116848880D03*
G04 #@! TO.P,U1,PA10*
G04 #@! TO.N,L_hall_A_LPF*
X67765307Y-139708880D03*
G04 #@! TO.P,U1,PB12*
G04 #@! TO.N,Net-(U1-PadPB12)*
X65225307Y-116848880D03*
G04 #@! TO.P,U1,PB13*
G04 #@! TO.N,Net-(U1-PadPB13)*
X65225307Y-134628880D03*
G04 #@! TO.P,U1,NC*
G04 #@! TO.N,N/C*
X65225307Y-144788880D03*
G04 #@! TO.P,U1,PB4*
G04 #@! TO.N,R_hall_A_LPF*
X67765307Y-132088880D03*
G04 #@! TO.P,U1,PA3*
G04 #@! TO.N,bluetooth_serial_2_Tx*
X67765307Y-144788880D03*
G04 #@! TO.P,U1,PB15*
G04 #@! TO.N,Net-(U1-PadPB15)*
X65225307Y-129548880D03*
G04 #@! TO.P,U1,PB14*
G04 #@! TO.N,Net-(U1-PadPB14)*
X65225307Y-132088880D03*
G04 #@! TO.P,U1,PB2*
G04 #@! TO.N,Net-(U1-PadPB2)*
X65225307Y-124468880D03*
G04 #@! TO.P,U1,PC4*
G04 #@! TO.N,Net-(U1-PadPC4)*
X65225307Y-139708880D03*
G04 #@! TO.P,U1,PA2*
G04 #@! TO.N,bluetooth_serial_2_Rx*
X67765307Y-142248880D03*
G04 #@! TO.P,U1,PA9*
G04 #@! TO.N,R_hall_C_LPF*
X67765307Y-124468880D03*
G04 #@! TO.P,U1,PC7*
G04 #@! TO.N,IMU_INT*
X67765307Y-121928880D03*
G04 #@! TO.P,U1,PB1*
G04 #@! TO.N,Net-(U1-PadPB1)*
X65225307Y-127008880D03*
G04 #@! TO.P,U1,NC*
G04 #@! TO.N,N/C*
X65225307Y-119388880D03*
G04 #@! TD*
D12*
G04 #@! TO.P,C6,2*
G04 #@! TO.N,GND*
X91307307Y-135390880D03*
G04 #@! TO.P,C6,1*
G04 #@! TO.N,R_hall_A_LPF*
X86307307Y-135390880D03*
G04 #@! TD*
G04 #@! TO.P,C1,1*
G04 #@! TO.N,L_hall_C_LPF*
X77497307Y-136152880D03*
G04 #@! TO.P,C1,2*
G04 #@! TO.N,GND*
X82497307Y-136152880D03*
G04 #@! TD*
G04 #@! TO.P,C2,2*
G04 #@! TO.N,GND*
X96387307Y-129040880D03*
G04 #@! TO.P,C2,1*
G04 #@! TO.N,R_hall_C_LPF*
X91387307Y-129040880D03*
G04 #@! TD*
G04 #@! TO.P,C3,1*
G04 #@! TO.N,L_hall_B_LPF*
X77417307Y-139454880D03*
G04 #@! TO.P,C3,2*
G04 #@! TO.N,GND*
X82417307Y-139454880D03*
G04 #@! TD*
G04 #@! TO.P,C4,2*
G04 #@! TO.N,GND*
X93847307Y-132088880D03*
G04 #@! TO.P,C4,1*
G04 #@! TO.N,R_hall_B_LPF*
X88847307Y-132088880D03*
G04 #@! TD*
G04 #@! TO.P,C5,1*
G04 #@! TO.N,L_hall_A_LPF*
X77417307Y-142756880D03*
G04 #@! TO.P,C5,2*
G04 #@! TO.N,GND*
X82417307Y-142756880D03*
G04 #@! TD*
D13*
G04 #@! TO.P,R1,1*
G04 #@! TO.N,bluetooth_serial_1_Rx*
X112469307Y-118880880D03*
D14*
G04 #@! TO.P,R1,2*
G04 #@! TO.N,Net-(J1_btcomms_1-Pad5)*
X112469307Y-123960880D03*
G04 #@! TD*
G04 #@! TO.P,R2,2*
G04 #@! TO.N,Net-(J1_btcomms_1-Pad5)*
X107389307Y-123960880D03*
D13*
G04 #@! TO.P,R2,1*
G04 #@! TO.N,GND*
X107389307Y-118880880D03*
G04 #@! TD*
G04 #@! TO.P,R3,1*
G04 #@! TO.N,bluetooth_serial_2_Rx*
X71067307Y-142248880D03*
D14*
G04 #@! TO.P,R3,2*
G04 #@! TO.N,Net-(J7_btcomms_2-Pad5)*
X71067307Y-147328880D03*
G04 #@! TD*
G04 #@! TO.P,R4,2*
G04 #@! TO.N,Net-(J7_btcomms_2-Pad5)*
X61669307Y-147328880D03*
D13*
G04 #@! TO.P,R4,1*
G04 #@! TO.N,GND*
X61669307Y-142248880D03*
G04 #@! TD*
D15*
G04 #@! TO.N,GND*
G04 #@! TO.C,J4_serial3*
G36*
X57463307Y-77118087D02*
X57487630Y-77121694D01*
X57511481Y-77127669D01*
X57534633Y-77135953D01*
X57556861Y-77146466D01*
X57577951Y-77159107D01*
X57597701Y-77173754D01*
X57615920Y-77190267D01*
X57632433Y-77208486D01*
X57647080Y-77228236D01*
X57659721Y-77249326D01*
X57670234Y-77271554D01*
X57678518Y-77294706D01*
X57684493Y-77318557D01*
X57688100Y-77342880D01*
X57689307Y-77367439D01*
X57689307Y-78606321D01*
X57688100Y-78630880D01*
X57684493Y-78655203D01*
X57678518Y-78679054D01*
X57670234Y-78702206D01*
X57659721Y-78724434D01*
X57647080Y-78745524D01*
X57632433Y-78765274D01*
X57615920Y-78783493D01*
X57597701Y-78800006D01*
X57577951Y-78814653D01*
X57556861Y-78827294D01*
X57534633Y-78837807D01*
X57511481Y-78846091D01*
X57487630Y-78852066D01*
X57463307Y-78855673D01*
X57438748Y-78856880D01*
X55739866Y-78856880D01*
X55715307Y-78855673D01*
X55690984Y-78852066D01*
X55667133Y-78846091D01*
X55643981Y-78837807D01*
X55621753Y-78827294D01*
X55600663Y-78814653D01*
X55580913Y-78800006D01*
X55562694Y-78783493D01*
X55546181Y-78765274D01*
X55531534Y-78745524D01*
X55518893Y-78724434D01*
X55508380Y-78702206D01*
X55500096Y-78679054D01*
X55494121Y-78655203D01*
X55490514Y-78630880D01*
X55489307Y-78606321D01*
X55489307Y-77367439D01*
X55490514Y-77342880D01*
X55494121Y-77318557D01*
X55500096Y-77294706D01*
X55508380Y-77271554D01*
X55518893Y-77249326D01*
X55531534Y-77228236D01*
X55546181Y-77208486D01*
X55562694Y-77190267D01*
X55580913Y-77173754D01*
X55600663Y-77159107D01*
X55621753Y-77146466D01*
X55643981Y-77135953D01*
X55667133Y-77127669D01*
X55690984Y-77121694D01*
X55715307Y-77118087D01*
X55739866Y-77116880D01*
X57438748Y-77116880D01*
X57463307Y-77118087D01*
X57463307Y-77118087D01*
G37*
D16*
G04 #@! TD*
G04 #@! TO.P,J4_serial3,1*
G04 #@! TO.N,GND*
X56589307Y-77986880D03*
D17*
G04 #@! TO.P,J4_serial3,2*
G04 #@! TO.N,serial3_Rx*
X56589307Y-80526880D03*
G04 #@! TO.P,J4_serial3,3*
G04 #@! TO.N,serial3_Tx*
X56589307Y-83066880D03*
G04 #@! TO.P,J4_serial3,4*
G04 #@! TO.N,+5V*
X56589307Y-85606880D03*
G04 #@! TD*
D15*
G04 #@! TO.N,Net-(J1_btcomms_1-Pad1)*
G04 #@! TO.C,J1_btcomms_1*
G36*
X112097307Y-152072087D02*
X112121630Y-152075694D01*
X112145481Y-152081669D01*
X112168633Y-152089953D01*
X112190861Y-152100466D01*
X112211951Y-152113107D01*
X112231701Y-152127754D01*
X112249920Y-152144267D01*
X112266433Y-152162486D01*
X112281080Y-152182236D01*
X112293721Y-152203326D01*
X112304234Y-152225554D01*
X112312518Y-152248706D01*
X112318493Y-152272557D01*
X112322100Y-152296880D01*
X112323307Y-152321439D01*
X112323307Y-154020321D01*
X112322100Y-154044880D01*
X112318493Y-154069203D01*
X112312518Y-154093054D01*
X112304234Y-154116206D01*
X112293721Y-154138434D01*
X112281080Y-154159524D01*
X112266433Y-154179274D01*
X112249920Y-154197493D01*
X112231701Y-154214006D01*
X112211951Y-154228653D01*
X112190861Y-154241294D01*
X112168633Y-154251807D01*
X112145481Y-154260091D01*
X112121630Y-154266066D01*
X112097307Y-154269673D01*
X112072748Y-154270880D01*
X110833866Y-154270880D01*
X110809307Y-154269673D01*
X110784984Y-154266066D01*
X110761133Y-154260091D01*
X110737981Y-154251807D01*
X110715753Y-154241294D01*
X110694663Y-154228653D01*
X110674913Y-154214006D01*
X110656694Y-154197493D01*
X110640181Y-154179274D01*
X110625534Y-154159524D01*
X110612893Y-154138434D01*
X110602380Y-154116206D01*
X110594096Y-154093054D01*
X110588121Y-154069203D01*
X110584514Y-154044880D01*
X110583307Y-154020321D01*
X110583307Y-152321439D01*
X110584514Y-152296880D01*
X110588121Y-152272557D01*
X110594096Y-152248706D01*
X110602380Y-152225554D01*
X110612893Y-152203326D01*
X110625534Y-152182236D01*
X110640181Y-152162486D01*
X110656694Y-152144267D01*
X110674913Y-152127754D01*
X110694663Y-152113107D01*
X110715753Y-152100466D01*
X110737981Y-152089953D01*
X110761133Y-152081669D01*
X110784984Y-152075694D01*
X110809307Y-152072087D01*
X110833866Y-152070880D01*
X112072748Y-152070880D01*
X112097307Y-152072087D01*
X112097307Y-152072087D01*
G37*
D16*
G04 #@! TD*
G04 #@! TO.P,J1_btcomms_1,1*
G04 #@! TO.N,Net-(J1_btcomms_1-Pad1)*
X111453307Y-153170880D03*
D18*
G04 #@! TO.P,J1_btcomms_1,2*
G04 #@! TO.N,+5V*
X108913307Y-153170880D03*
G04 #@! TO.P,J1_btcomms_1,3*
G04 #@! TO.N,GND*
X106373307Y-153170880D03*
G04 #@! TO.P,J1_btcomms_1,4*
G04 #@! TO.N,bluetooth_serial_1_Tx*
X103833307Y-153170880D03*
G04 #@! TO.P,J1_btcomms_1,5*
G04 #@! TO.N,Net-(J1_btcomms_1-Pad5)*
X101293307Y-153170880D03*
G04 #@! TO.P,J1_btcomms_1,6*
G04 #@! TO.N,Net-(J1_btcomms_1-Pad6)*
X98753307Y-153170880D03*
G04 #@! TD*
D15*
G04 #@! TO.N,+5V*
G04 #@! TO.C,J2_IMU1*
G36*
X57463307Y-96168087D02*
X57487630Y-96171694D01*
X57511481Y-96177669D01*
X57534633Y-96185953D01*
X57556861Y-96196466D01*
X57577951Y-96209107D01*
X57597701Y-96223754D01*
X57615920Y-96240267D01*
X57632433Y-96258486D01*
X57647080Y-96278236D01*
X57659721Y-96299326D01*
X57670234Y-96321554D01*
X57678518Y-96344706D01*
X57684493Y-96368557D01*
X57688100Y-96392880D01*
X57689307Y-96417439D01*
X57689307Y-97656321D01*
X57688100Y-97680880D01*
X57684493Y-97705203D01*
X57678518Y-97729054D01*
X57670234Y-97752206D01*
X57659721Y-97774434D01*
X57647080Y-97795524D01*
X57632433Y-97815274D01*
X57615920Y-97833493D01*
X57597701Y-97850006D01*
X57577951Y-97864653D01*
X57556861Y-97877294D01*
X57534633Y-97887807D01*
X57511481Y-97896091D01*
X57487630Y-97902066D01*
X57463307Y-97905673D01*
X57438748Y-97906880D01*
X55739866Y-97906880D01*
X55715307Y-97905673D01*
X55690984Y-97902066D01*
X55667133Y-97896091D01*
X55643981Y-97887807D01*
X55621753Y-97877294D01*
X55600663Y-97864653D01*
X55580913Y-97850006D01*
X55562694Y-97833493D01*
X55546181Y-97815274D01*
X55531534Y-97795524D01*
X55518893Y-97774434D01*
X55508380Y-97752206D01*
X55500096Y-97729054D01*
X55494121Y-97705203D01*
X55490514Y-97680880D01*
X55489307Y-97656321D01*
X55489307Y-96417439D01*
X55490514Y-96392880D01*
X55494121Y-96368557D01*
X55500096Y-96344706D01*
X55508380Y-96321554D01*
X55518893Y-96299326D01*
X55531534Y-96278236D01*
X55546181Y-96258486D01*
X55562694Y-96240267D01*
X55580913Y-96223754D01*
X55600663Y-96209107D01*
X55621753Y-96196466D01*
X55643981Y-96185953D01*
X55667133Y-96177669D01*
X55690984Y-96171694D01*
X55715307Y-96168087D01*
X55739866Y-96166880D01*
X57438748Y-96166880D01*
X57463307Y-96168087D01*
X57463307Y-96168087D01*
G37*
D16*
G04 #@! TD*
G04 #@! TO.P,J2_IMU1,1*
G04 #@! TO.N,+5V*
X56589307Y-97036880D03*
D17*
G04 #@! TO.P,J2_IMU1,2*
G04 #@! TO.N,GND*
X56589307Y-99576880D03*
G04 #@! TO.P,J2_IMU1,3*
G04 #@! TO.N,IMU_SCL*
X56589307Y-102116880D03*
G04 #@! TO.P,J2_IMU1,4*
G04 #@! TO.N,IMU_SDA*
X56589307Y-104656880D03*
G04 #@! TO.P,J2_IMU1,5*
G04 #@! TO.N,Net-(J2_IMU1-Pad5)*
X56589307Y-107196880D03*
G04 #@! TO.P,J2_IMU1,6*
G04 #@! TO.N,Net-(J2_IMU1-Pad6)*
X56589307Y-109736880D03*
G04 #@! TO.P,J2_IMU1,7*
G04 #@! TO.N,Net-(J2_IMU1-Pad7)*
X56589307Y-112276880D03*
G04 #@! TO.P,J2_IMU1,8*
G04 #@! TO.N,IMU_INT*
X56589307Y-114816880D03*
G04 #@! TD*
D15*
G04 #@! TO.N,GND*
G04 #@! TO.C,J3_hoverboard_serial1*
G36*
X116923307Y-152072087D02*
X116947630Y-152075694D01*
X116971481Y-152081669D01*
X116994633Y-152089953D01*
X117016861Y-152100466D01*
X117037951Y-152113107D01*
X117057701Y-152127754D01*
X117075920Y-152144267D01*
X117092433Y-152162486D01*
X117107080Y-152182236D01*
X117119721Y-152203326D01*
X117130234Y-152225554D01*
X117138518Y-152248706D01*
X117144493Y-152272557D01*
X117148100Y-152296880D01*
X117149307Y-152321439D01*
X117149307Y-154020321D01*
X117148100Y-154044880D01*
X117144493Y-154069203D01*
X117138518Y-154093054D01*
X117130234Y-154116206D01*
X117119721Y-154138434D01*
X117107080Y-154159524D01*
X117092433Y-154179274D01*
X117075920Y-154197493D01*
X117057701Y-154214006D01*
X117037951Y-154228653D01*
X117016861Y-154241294D01*
X116994633Y-154251807D01*
X116971481Y-154260091D01*
X116947630Y-154266066D01*
X116923307Y-154269673D01*
X116898748Y-154270880D01*
X115659866Y-154270880D01*
X115635307Y-154269673D01*
X115610984Y-154266066D01*
X115587133Y-154260091D01*
X115563981Y-154251807D01*
X115541753Y-154241294D01*
X115520663Y-154228653D01*
X115500913Y-154214006D01*
X115482694Y-154197493D01*
X115466181Y-154179274D01*
X115451534Y-154159524D01*
X115438893Y-154138434D01*
X115428380Y-154116206D01*
X115420096Y-154093054D01*
X115414121Y-154069203D01*
X115410514Y-154044880D01*
X115409307Y-154020321D01*
X115409307Y-152321439D01*
X115410514Y-152296880D01*
X115414121Y-152272557D01*
X115420096Y-152248706D01*
X115428380Y-152225554D01*
X115438893Y-152203326D01*
X115451534Y-152182236D01*
X115466181Y-152162486D01*
X115482694Y-152144267D01*
X115500913Y-152127754D01*
X115520663Y-152113107D01*
X115541753Y-152100466D01*
X115563981Y-152089953D01*
X115587133Y-152081669D01*
X115610984Y-152075694D01*
X115635307Y-152072087D01*
X115659866Y-152070880D01*
X116898748Y-152070880D01*
X116923307Y-152072087D01*
X116923307Y-152072087D01*
G37*
D16*
G04 #@! TD*
G04 #@! TO.P,J3_hoverboard_serial1,1*
G04 #@! TO.N,GND*
X116279307Y-153170880D03*
D18*
G04 #@! TO.P,J3_hoverboard_serial1,2*
G04 #@! TO.N,hoverboard_serial_Rx*
X118819307Y-153170880D03*
G04 #@! TO.P,J3_hoverboard_serial1,3*
G04 #@! TO.N,hoverboard_serial_Tx*
X121359307Y-153170880D03*
G04 #@! TD*
G04 #@! TO.P,J5_LEFT_HALL_IN1,4*
G04 #@! TO.N,L_hall_A_LPF*
X74623307Y-153268559D03*
G04 #@! TO.P,J5_LEFT_HALL_IN1,3*
G04 #@! TO.N,L_hall_B_LPF*
X77163307Y-153268559D03*
G04 #@! TO.P,J5_LEFT_HALL_IN1,2*
G04 #@! TO.N,L_hall_C_LPF*
X79703307Y-153268559D03*
D15*
G04 #@! TD*
G04 #@! TO.N,GND*
G04 #@! TO.C,J5_LEFT_HALL_IN1*
G36*
X82887307Y-152169766D02*
X82911630Y-152173373D01*
X82935481Y-152179348D01*
X82958633Y-152187632D01*
X82980861Y-152198145D01*
X83001951Y-152210786D01*
X83021701Y-152225433D01*
X83039920Y-152241946D01*
X83056433Y-152260165D01*
X83071080Y-152279915D01*
X83083721Y-152301005D01*
X83094234Y-152323233D01*
X83102518Y-152346385D01*
X83108493Y-152370236D01*
X83112100Y-152394559D01*
X83113307Y-152419118D01*
X83113307Y-154118000D01*
X83112100Y-154142559D01*
X83108493Y-154166882D01*
X83102518Y-154190733D01*
X83094234Y-154213885D01*
X83083721Y-154236113D01*
X83071080Y-154257203D01*
X83056433Y-154276953D01*
X83039920Y-154295172D01*
X83021701Y-154311685D01*
X83001951Y-154326332D01*
X82980861Y-154338973D01*
X82958633Y-154349486D01*
X82935481Y-154357770D01*
X82911630Y-154363745D01*
X82887307Y-154367352D01*
X82862748Y-154368559D01*
X81623866Y-154368559D01*
X81599307Y-154367352D01*
X81574984Y-154363745D01*
X81551133Y-154357770D01*
X81527981Y-154349486D01*
X81505753Y-154338973D01*
X81484663Y-154326332D01*
X81464913Y-154311685D01*
X81446694Y-154295172D01*
X81430181Y-154276953D01*
X81415534Y-154257203D01*
X81402893Y-154236113D01*
X81392380Y-154213885D01*
X81384096Y-154190733D01*
X81378121Y-154166882D01*
X81374514Y-154142559D01*
X81373307Y-154118000D01*
X81373307Y-152419118D01*
X81374514Y-152394559D01*
X81378121Y-152370236D01*
X81384096Y-152346385D01*
X81392380Y-152323233D01*
X81402893Y-152301005D01*
X81415534Y-152279915D01*
X81430181Y-152260165D01*
X81446694Y-152241946D01*
X81464913Y-152225433D01*
X81484663Y-152210786D01*
X81505753Y-152198145D01*
X81527981Y-152187632D01*
X81551133Y-152179348D01*
X81574984Y-152173373D01*
X81599307Y-152169766D01*
X81623866Y-152168559D01*
X82862748Y-152168559D01*
X82887307Y-152169766D01*
X82887307Y-152169766D01*
G37*
D16*
G04 #@! TO.P,J5_LEFT_HALL_IN1,1*
G04 #@! TO.N,GND*
X82243307Y-153268559D03*
G04 #@! TD*
D15*
G04 #@! TO.N,GND*
G04 #@! TO.C,J6_RIGHT_HALL_IN1*
G36*
X94571307Y-152169766D02*
X94595630Y-152173373D01*
X94619481Y-152179348D01*
X94642633Y-152187632D01*
X94664861Y-152198145D01*
X94685951Y-152210786D01*
X94705701Y-152225433D01*
X94723920Y-152241946D01*
X94740433Y-152260165D01*
X94755080Y-152279915D01*
X94767721Y-152301005D01*
X94778234Y-152323233D01*
X94786518Y-152346385D01*
X94792493Y-152370236D01*
X94796100Y-152394559D01*
X94797307Y-152419118D01*
X94797307Y-154118000D01*
X94796100Y-154142559D01*
X94792493Y-154166882D01*
X94786518Y-154190733D01*
X94778234Y-154213885D01*
X94767721Y-154236113D01*
X94755080Y-154257203D01*
X94740433Y-154276953D01*
X94723920Y-154295172D01*
X94705701Y-154311685D01*
X94685951Y-154326332D01*
X94664861Y-154338973D01*
X94642633Y-154349486D01*
X94619481Y-154357770D01*
X94595630Y-154363745D01*
X94571307Y-154367352D01*
X94546748Y-154368559D01*
X93307866Y-154368559D01*
X93283307Y-154367352D01*
X93258984Y-154363745D01*
X93235133Y-154357770D01*
X93211981Y-154349486D01*
X93189753Y-154338973D01*
X93168663Y-154326332D01*
X93148913Y-154311685D01*
X93130694Y-154295172D01*
X93114181Y-154276953D01*
X93099534Y-154257203D01*
X93086893Y-154236113D01*
X93076380Y-154213885D01*
X93068096Y-154190733D01*
X93062121Y-154166882D01*
X93058514Y-154142559D01*
X93057307Y-154118000D01*
X93057307Y-152419118D01*
X93058514Y-152394559D01*
X93062121Y-152370236D01*
X93068096Y-152346385D01*
X93076380Y-152323233D01*
X93086893Y-152301005D01*
X93099534Y-152279915D01*
X93114181Y-152260165D01*
X93130694Y-152241946D01*
X93148913Y-152225433D01*
X93168663Y-152210786D01*
X93189753Y-152198145D01*
X93211981Y-152187632D01*
X93235133Y-152179348D01*
X93258984Y-152173373D01*
X93283307Y-152169766D01*
X93307866Y-152168559D01*
X94546748Y-152168559D01*
X94571307Y-152169766D01*
X94571307Y-152169766D01*
G37*
D16*
G04 #@! TD*
G04 #@! TO.P,J6_RIGHT_HALL_IN1,1*
G04 #@! TO.N,GND*
X93927307Y-153268559D03*
D18*
G04 #@! TO.P,J6_RIGHT_HALL_IN1,2*
G04 #@! TO.N,R_hall_C_LPF*
X91387307Y-153268559D03*
G04 #@! TO.P,J6_RIGHT_HALL_IN1,3*
G04 #@! TO.N,R_hall_B_LPF*
X88847307Y-153268559D03*
G04 #@! TO.P,J6_RIGHT_HALL_IN1,4*
G04 #@! TO.N,R_hall_A_LPF*
X86307307Y-153268559D03*
G04 #@! TD*
D17*
G04 #@! TO.P,J7_btcomms_2,6*
G04 #@! TO.N,Net-(J7_btcomms_2-Pad6)*
X56589307Y-143518880D03*
G04 #@! TO.P,J7_btcomms_2,5*
G04 #@! TO.N,Net-(J7_btcomms_2-Pad5)*
X56589307Y-140978880D03*
G04 #@! TO.P,J7_btcomms_2,4*
G04 #@! TO.N,bluetooth_serial_2_Tx*
X56589307Y-138438880D03*
G04 #@! TO.P,J7_btcomms_2,3*
G04 #@! TO.N,GND*
X56589307Y-135898880D03*
G04 #@! TO.P,J7_btcomms_2,2*
G04 #@! TO.N,+5V*
X56589307Y-133358880D03*
D15*
G04 #@! TD*
G04 #@! TO.N,Net-(J7_btcomms_2-Pad1)*
G04 #@! TO.C,J7_btcomms_2*
G36*
X57463307Y-129950087D02*
X57487630Y-129953694D01*
X57511481Y-129959669D01*
X57534633Y-129967953D01*
X57556861Y-129978466D01*
X57577951Y-129991107D01*
X57597701Y-130005754D01*
X57615920Y-130022267D01*
X57632433Y-130040486D01*
X57647080Y-130060236D01*
X57659721Y-130081326D01*
X57670234Y-130103554D01*
X57678518Y-130126706D01*
X57684493Y-130150557D01*
X57688100Y-130174880D01*
X57689307Y-130199439D01*
X57689307Y-131438321D01*
X57688100Y-131462880D01*
X57684493Y-131487203D01*
X57678518Y-131511054D01*
X57670234Y-131534206D01*
X57659721Y-131556434D01*
X57647080Y-131577524D01*
X57632433Y-131597274D01*
X57615920Y-131615493D01*
X57597701Y-131632006D01*
X57577951Y-131646653D01*
X57556861Y-131659294D01*
X57534633Y-131669807D01*
X57511481Y-131678091D01*
X57487630Y-131684066D01*
X57463307Y-131687673D01*
X57438748Y-131688880D01*
X55739866Y-131688880D01*
X55715307Y-131687673D01*
X55690984Y-131684066D01*
X55667133Y-131678091D01*
X55643981Y-131669807D01*
X55621753Y-131659294D01*
X55600663Y-131646653D01*
X55580913Y-131632006D01*
X55562694Y-131615493D01*
X55546181Y-131597274D01*
X55531534Y-131577524D01*
X55518893Y-131556434D01*
X55508380Y-131534206D01*
X55500096Y-131511054D01*
X55494121Y-131487203D01*
X55490514Y-131462880D01*
X55489307Y-131438321D01*
X55489307Y-130199439D01*
X55490514Y-130174880D01*
X55494121Y-130150557D01*
X55500096Y-130126706D01*
X55508380Y-130103554D01*
X55518893Y-130081326D01*
X55531534Y-130060236D01*
X55546181Y-130040486D01*
X55562694Y-130022267D01*
X55580913Y-130005754D01*
X55600663Y-129991107D01*
X55621753Y-129978466D01*
X55643981Y-129967953D01*
X55667133Y-129959669D01*
X55690984Y-129953694D01*
X55715307Y-129950087D01*
X55739866Y-129948880D01*
X57438748Y-129948880D01*
X57463307Y-129950087D01*
X57463307Y-129950087D01*
G37*
D16*
G04 #@! TO.P,J7_btcomms_2,1*
G04 #@! TO.N,Net-(J7_btcomms_2-Pad1)*
X56589307Y-130818880D03*
G04 #@! TD*
D19*
G04 #@! TO.N,GND*
X106373307Y-142248880D03*
X111961307Y-142248880D03*
G04 #@! TO.N,IMU_SCL*
X71575307Y-98814880D03*
X71575307Y-94242880D03*
G04 #@! TO.N,IMU_INT*
X60907307Y-107450880D03*
X60907307Y-92464880D03*
G04 #@! TO.N,bluetooth_serial_1_Rx*
X112469307Y-102624880D03*
X112469307Y-90432880D03*
G04 #@! TD*
D20*
G04 #@! TO.N,R_hall_C_LPF*
X86815307Y-124468880D02*
X91387307Y-129040880D01*
X67765307Y-124468880D02*
X86815307Y-124468880D01*
X91387307Y-130172250D02*
X91387307Y-129040880D01*
X91387307Y-132550878D02*
X91387307Y-130172250D01*
X89355307Y-134582878D02*
X91387307Y-132550878D01*
X89355307Y-143772880D02*
X89355307Y-134582878D01*
X91387307Y-145804880D02*
X89355307Y-143772880D01*
X91387307Y-153268559D02*
X91387307Y-145804880D01*
G04 #@! TO.N,GND*
X61669307Y-141258931D02*
X61669307Y-142248880D01*
X61669307Y-139278880D02*
X61669307Y-141258931D01*
X58289307Y-135898880D02*
X61669307Y-139278880D01*
X56589307Y-135898880D02*
X58289307Y-135898880D01*
X84529307Y-139454880D02*
X82417307Y-139454880D01*
X85545307Y-140470880D02*
X84529307Y-139454880D01*
X82243307Y-153268559D02*
X85545307Y-149966559D01*
X85545307Y-149966559D02*
X85545307Y-140470880D01*
X82417307Y-142756880D02*
X82417307Y-139454880D01*
X82497307Y-139374880D02*
X82417307Y-139454880D01*
X82497307Y-136152880D02*
X82497307Y-139374880D01*
X91307307Y-135390880D02*
X92911307Y-135390880D01*
X93847307Y-134454880D02*
X93847307Y-132088880D01*
X92911307Y-135390880D02*
X93847307Y-134454880D01*
X93847307Y-132088880D02*
X95451307Y-132088880D01*
X96387307Y-131152880D02*
X96387307Y-129040880D01*
X95451307Y-132088880D02*
X96387307Y-131152880D01*
X55319307Y-121928880D02*
X65225307Y-121928880D01*
X116279307Y-153170880D02*
X116279307Y-135136880D01*
X116279307Y-135136880D02*
X120851307Y-130564880D01*
X120851307Y-130564880D02*
X120851307Y-127008880D01*
X123391307Y-124468880D02*
X126185307Y-124468880D01*
X120851307Y-127008880D02*
X123391307Y-124468880D01*
X122883307Y-106688880D02*
X126185307Y-106688880D01*
X117549307Y-112022880D02*
X122883307Y-106688880D01*
X117549307Y-128278880D02*
X117549307Y-112022880D01*
X106373307Y-139454880D02*
X117549307Y-128278880D01*
X106373307Y-153170880D02*
X106373307Y-153400880D01*
X106373307Y-142248880D02*
X106373307Y-139454880D01*
X106373307Y-153170880D02*
X106373307Y-142248880D01*
X114501307Y-153170880D02*
X116279307Y-153170880D01*
X113739307Y-152408880D02*
X114501307Y-153170880D01*
X113739307Y-147836880D02*
X113739307Y-152408880D01*
X111961307Y-142248880D02*
X111961307Y-146058880D01*
X111961307Y-146058880D02*
X113739307Y-147836880D01*
X93927307Y-155710880D02*
X93927307Y-153268559D01*
X95705307Y-157488880D02*
X93927307Y-155710880D01*
X114501307Y-157488880D02*
X95705307Y-157488880D01*
X116279307Y-153170880D02*
X116279307Y-155710880D01*
X116279307Y-155710880D02*
X114501307Y-157488880D01*
X92149307Y-157488880D02*
X93927307Y-155710880D01*
X86561307Y-157488880D02*
X92149307Y-157488880D01*
X83280759Y-154208332D02*
X86561307Y-157488880D01*
X82243307Y-153268559D02*
X83183080Y-154208332D01*
X83183080Y-154208332D02*
X83280759Y-154208332D01*
X93927307Y-153268559D02*
X93927307Y-141740880D01*
X91307307Y-139120880D02*
X91307307Y-135390880D01*
X93927307Y-141740880D02*
X91307307Y-139120880D01*
X61669307Y-139278880D02*
X61669307Y-139200880D01*
X107389307Y-118880880D02*
X99007307Y-118880880D01*
X96387307Y-121500880D02*
X96387307Y-129040880D01*
X99007307Y-118880880D02*
X96387307Y-121500880D01*
X54889307Y-99576880D02*
X53795307Y-100670880D01*
X56589307Y-99576880D02*
X54889307Y-99576880D01*
X53795307Y-100670880D02*
X53795307Y-120404880D01*
X53795307Y-120404880D02*
X55319307Y-121928880D01*
X54506507Y-128278880D02*
X53846107Y-127618480D01*
X60399307Y-128278880D02*
X54506507Y-128278880D01*
X53846107Y-127618480D02*
X53846107Y-123402080D01*
X55319307Y-121928880D02*
X53846107Y-123402080D01*
X58289307Y-135898880D02*
X58367307Y-135898880D01*
X58367307Y-135898880D02*
X61161307Y-133104880D01*
X61161307Y-133104880D02*
X61161307Y-129040880D01*
X61161307Y-129040880D02*
X60399307Y-128278880D01*
X54049307Y-77986880D02*
X56589307Y-77986880D01*
X50937807Y-81098380D02*
X54049307Y-77986880D01*
X56589307Y-135898880D02*
X54811307Y-135898880D01*
X50937807Y-132025380D02*
X50937807Y-130056880D01*
X54811307Y-135898880D02*
X50937807Y-132025380D01*
X50937807Y-130056880D02*
X50937807Y-81098380D01*
X53541307Y-137168880D02*
X54811307Y-135898880D01*
X53541307Y-144788880D02*
X53541307Y-137168880D01*
X54811307Y-146058880D02*
X53541307Y-144788880D01*
X57097307Y-146058880D02*
X54811307Y-146058880D01*
X60653307Y-149614880D02*
X57097307Y-146058880D01*
X82243307Y-154468559D02*
X80746986Y-155964880D01*
X82243307Y-153268559D02*
X82243307Y-154468559D01*
X80746986Y-155964880D02*
X73607307Y-155964880D01*
X69289307Y-149614880D02*
X60653307Y-149614880D01*
X73607307Y-155964880D02*
X71575307Y-153932880D01*
X71575307Y-153932880D02*
X71575307Y-151900880D01*
X71575307Y-151900880D02*
X69289307Y-149614880D01*
G04 #@! TO.N,R_hall_B_LPF*
X83767307Y-127008880D02*
X67765307Y-127008880D01*
X88847307Y-132088880D02*
X83767307Y-127008880D01*
X88047308Y-132888879D02*
X88047308Y-144572879D01*
X88847307Y-132088880D02*
X88047308Y-132888879D01*
X88847307Y-145372878D02*
X88847307Y-153268559D01*
X88047308Y-144572879D02*
X88847307Y-145372878D01*
G04 #@! TO.N,R_hall_A_LPF*
X83005307Y-132088880D02*
X86307307Y-135390880D01*
X67765307Y-132088880D02*
X83005307Y-132088880D01*
X86307307Y-137676880D02*
X86307307Y-135390880D01*
X86307307Y-151138880D02*
X87323307Y-150122880D01*
X86307307Y-153268559D02*
X86307307Y-151138880D01*
X87323307Y-150122880D02*
X87323307Y-145550880D01*
X86815307Y-145042880D02*
X86815307Y-138184880D01*
X87323307Y-145550880D02*
X86815307Y-145042880D01*
X86815307Y-138184880D02*
X86307307Y-137676880D01*
G04 #@! TO.N,L_hall_C_LPF*
X75973307Y-134628880D02*
X77497307Y-136152880D01*
X67765307Y-134628880D02*
X75973307Y-134628880D01*
X77497307Y-136152880D02*
X80465307Y-139120880D01*
X80465307Y-139120880D02*
X80465307Y-145804880D01*
X79703307Y-146566880D02*
X79703307Y-153268559D01*
X80465307Y-145804880D02*
X79703307Y-146566880D01*
G04 #@! TO.N,L_hall_B_LPF*
X75131307Y-137168880D02*
X77417307Y-139454880D01*
X67765307Y-137168880D02*
X75131307Y-137168880D01*
X79195307Y-141232880D02*
X77417307Y-139454880D01*
X79195307Y-144788880D02*
X79195307Y-141232880D01*
X77163307Y-153268559D02*
X77163307Y-146820880D01*
X77163307Y-146820880D02*
X79195307Y-144788880D01*
G04 #@! TO.N,L_hall_A_LPF*
X74369307Y-139708880D02*
X67765307Y-139708880D01*
X77417307Y-142756880D02*
X74369307Y-139708880D01*
X77417307Y-144026880D02*
X77417307Y-142756880D01*
X74623307Y-153268559D02*
X74623307Y-146820880D01*
X74623307Y-146820880D02*
X77417307Y-144026880D01*
G04 #@! TO.N,+5V*
X126185307Y-119388880D02*
X122883307Y-119388880D01*
X122883307Y-119388880D02*
X119073307Y-123198880D01*
X119073307Y-123198880D02*
X119073307Y-129802880D01*
X108913307Y-139962880D02*
X108913307Y-153170880D01*
X119073307Y-129802880D02*
X108913307Y-139962880D01*
X56589307Y-97036880D02*
X56589307Y-96066880D01*
X56589307Y-96066880D02*
X56589307Y-92210880D01*
X56589307Y-92210880D02*
X59637307Y-89162880D01*
X84021307Y-113546880D02*
X79957307Y-109482880D01*
X97483307Y-155964880D02*
X96467307Y-154948880D01*
X107897307Y-155964880D02*
X97483307Y-155964880D01*
X108913307Y-154948880D02*
X107897307Y-155964880D01*
X96467307Y-154948880D02*
X97237315Y-154178872D01*
X97237315Y-154178872D02*
X97237315Y-134620872D01*
X97237315Y-134620872D02*
X102817307Y-129040880D01*
X102817307Y-129040880D02*
X102817307Y-124468880D01*
X105611307Y-121674880D02*
X108659307Y-121674880D01*
X108913307Y-153170880D02*
X108913307Y-154948880D01*
X102817307Y-124468880D02*
X105611307Y-121674880D01*
X108659307Y-121674880D02*
X109929307Y-120404880D01*
X109929307Y-120404880D02*
X109929307Y-116594880D01*
X109929307Y-116594880D02*
X106881307Y-113546880D01*
X106881307Y-113546880D02*
X84021307Y-113546880D01*
X79957307Y-109482880D02*
X79957307Y-94750880D01*
X74369307Y-89162880D02*
X59637307Y-89162880D01*
X79957307Y-94750880D02*
X74369307Y-89162880D01*
X56589307Y-87638880D02*
X56589307Y-85606880D01*
X55065307Y-89162880D02*
X56589307Y-87638880D01*
X56589307Y-92210880D02*
X55065307Y-90686880D01*
X55065307Y-90686880D02*
X55065307Y-89162880D01*
X54303307Y-97036880D02*
X56589307Y-97036880D01*
X52372907Y-98967280D02*
X54303307Y-97036880D01*
X52372907Y-131631680D02*
X52372907Y-98967280D01*
X56589307Y-133358880D02*
X54100107Y-133358880D01*
X54100107Y-133358880D02*
X52372907Y-131631680D01*
G04 #@! TO.N,hoverboard_serial_Rx*
X118819307Y-136152880D02*
X118819307Y-153170880D01*
X126185307Y-132088880D02*
X122883307Y-132088880D01*
X122883307Y-132088880D02*
X118819307Y-136152880D01*
G04 #@! TO.N,hoverboard_serial_Tx*
X123391307Y-134628880D02*
X126185307Y-134628880D01*
X121359307Y-153170880D02*
X121359307Y-136660880D01*
X121359307Y-136660880D02*
X123391307Y-134628880D01*
G04 #@! TO.N,IMU_SCL*
X67765307Y-101608880D02*
X68967388Y-101608880D01*
X68967388Y-101608880D02*
X70813307Y-101608880D01*
X70813307Y-101608880D02*
X71575307Y-100846880D01*
X71575307Y-100846880D02*
X71575307Y-98814880D01*
X70975308Y-93642881D02*
X63539306Y-93642881D01*
X71575307Y-94242880D02*
X70975308Y-93642881D01*
X63539306Y-93642881D02*
X60145307Y-97036880D01*
X60145307Y-97036880D02*
X60145307Y-101354880D01*
X59383307Y-102116880D02*
X56589307Y-102116880D01*
X60145307Y-101354880D02*
X59383307Y-102116880D01*
G04 #@! TO.N,IMU_SDA*
X56589307Y-104656880D02*
X61415307Y-104656880D01*
X61415307Y-104656880D02*
X62685307Y-103386880D01*
X62685307Y-103386880D02*
X62685307Y-97544880D01*
X62685307Y-97544880D02*
X64209307Y-96020880D01*
X64209307Y-96020880D02*
X72337307Y-96020880D01*
X72337307Y-96020880D02*
X74877307Y-98560880D01*
X74877307Y-98560880D02*
X74877307Y-103386880D01*
X74115307Y-104148880D02*
X67765307Y-104148880D01*
X74877307Y-103386880D02*
X74115307Y-104148880D01*
G04 #@! TO.N,IMU_INT*
X59383307Y-114816880D02*
X59891307Y-114816880D01*
X59891307Y-114816880D02*
X60907307Y-113800880D01*
X56589307Y-114816880D02*
X59383307Y-114816880D01*
X60907307Y-113800880D02*
X60907307Y-107450880D01*
X61507306Y-91864881D02*
X73007308Y-91864881D01*
X60907307Y-92464880D02*
X61507306Y-91864881D01*
X73007308Y-91864881D02*
X77671307Y-96528880D01*
X77671307Y-96528880D02*
X77671307Y-116594880D01*
X72337307Y-121928880D02*
X67765307Y-121928880D01*
X77671307Y-116594880D02*
X72337307Y-121928880D01*
G04 #@! TO.N,serial3_Rx*
X128725307Y-99068880D02*
X128725307Y-96782880D01*
X127201307Y-95258880D02*
X121867307Y-95258880D01*
X121867307Y-95258880D02*
X120343307Y-96782880D01*
X76147307Y-80526880D02*
X56589307Y-80526880D01*
X128725307Y-96782880D02*
X127201307Y-95258880D01*
X120343307Y-96782880D02*
X92403307Y-96782880D01*
X92403307Y-96782880D02*
X76147307Y-80526880D01*
G04 #@! TO.N,serial3_Tx*
X56589307Y-83066880D02*
X74877307Y-83066880D01*
X90879307Y-99068880D02*
X126185307Y-99068880D01*
X74877307Y-83066880D02*
X90879307Y-99068880D01*
G04 #@! TO.N,bluetooth_serial_1_Tx*
X103833307Y-151470880D02*
X103833307Y-153170880D01*
X103833307Y-138692880D02*
X103833307Y-151470880D01*
X123899307Y-101608880D02*
X122629307Y-102878880D01*
X126185307Y-101608880D02*
X123899307Y-101608880D01*
X122629307Y-102878880D02*
X122629307Y-104656880D01*
X122629307Y-104656880D02*
X115009307Y-112276880D01*
X115009307Y-112276880D02*
X115009307Y-127516880D01*
X115009307Y-127516880D02*
X103833307Y-138692880D01*
G04 #@! TO.N,Net-(J1_btcomms_1-Pad5)*
X107389307Y-129294880D02*
X107389307Y-123960880D01*
X101293307Y-153170880D02*
X101293307Y-135390880D01*
X101293307Y-135390880D02*
X107389307Y-129294880D01*
X112469307Y-123960880D02*
X107389307Y-123960880D01*
G04 #@! TO.N,Net-(J7_btcomms_2-Pad5)*
X71067307Y-147328880D02*
X61669307Y-147328880D01*
X59129307Y-144788880D02*
X61669307Y-147328880D01*
X59129307Y-141818880D02*
X59129307Y-144788880D01*
X56589307Y-140978880D02*
X58289307Y-140978880D01*
X58289307Y-140978880D02*
X59129307Y-141818880D01*
G04 #@! TO.N,bluetooth_serial_2_Tx*
X58289307Y-138438880D02*
X56589307Y-138438880D01*
X67765307Y-144788880D02*
X66075317Y-146478870D01*
X66075317Y-146478870D02*
X64375297Y-146478870D01*
X64375297Y-146478870D02*
X61923307Y-144026880D01*
X60145307Y-140294880D02*
X58289307Y-138438880D01*
X61923307Y-144026880D02*
X60653307Y-144026880D01*
X60653307Y-144026880D02*
X60145307Y-143518880D01*
X60145307Y-143518880D02*
X60145307Y-140294880D01*
G04 #@! TO.N,bluetooth_serial_1_Rx*
X112469307Y-118880880D02*
X112469307Y-117890931D01*
X112469307Y-117890931D02*
X112469307Y-102624880D01*
X127709307Y-90432880D02*
X112469307Y-90432880D01*
X131773307Y-94496880D02*
X127709307Y-90432880D01*
X131773307Y-100846880D02*
X131773307Y-94496880D01*
X128725307Y-101608880D02*
X131011307Y-101608880D01*
X131011307Y-101608880D02*
X131773307Y-100846880D01*
G04 #@! TO.N,bluetooth_serial_2_Rx*
X71067307Y-142248880D02*
X67765307Y-142248880D01*
G04 #@! TD*
M02*
