%
M48
METRIC,000.000
T01C2.20
T10C0.80
T11C1.00
T12C1.20
%
T01
X057394Y056081
X057394Y074878
X050394Y034081
X050394Y052878
T10
X056123Y066242
X065726Y059656
X059172Y070560
X061172Y070560
X066934Y070698
X066934Y065698
X048154Y070524
X048154Y062904
X044953Y069294
X044953Y061674
X049123Y044242
X058726Y037656
X052172Y048560
X054172Y048560
X059934Y048697
X059934Y043697
X041154Y048524
X041154Y040904
X037953Y047294
X037953Y039674
T11
X066284Y062598
X068824Y062598
X059284Y040598
X061824Y040598
T12
X053075Y070560
X053075Y068020
X053075Y065480
X053075Y062940
X053075Y060400
X046075Y048560
X046075Y046019
X046075Y043480
X046075Y040940
X046075Y038400
M30