%MOIN*%
%OFA0B0*%
%FSLAX46Y46*%
%IPPOS*%
%LPD*%
%ADD10C,0.0039370078740157488*%
%ADD11C,0.068503937007874022*%
%ADD12O,0.086614173228346469X0.068503937007874022*%
%ADD13C,0.062992125984251982*%
%ADD14O,0.062992125984251982X0.062992125984251982*%
%ADD15R,0.023622047244094488X0.074803149606299218*%
%ADD16R,0.062992125984251982X0.062992125984251982*%
%ADD17R,0.074803149606299218X0.023622047244094488*%
%ADD18O,0.066929133858267723X0.066929133858267723*%
%ADD19R,0.066929133858267723X0.066929133858267723*%
%ADD20C,0.066929133858267723*%
%ADD21C,0.023622047244094488*%
%ADD32C,0.005905511811023622*%
%ADD33C,0.0039370078740157488*%
%ADD34C,0.068503937007874022*%
%ADD35O,0.086614173228346469X0.068503937007874022*%
%ADD36C,0.062992125984251982*%
%ADD37O,0.062992125984251982X0.062992125984251982*%
%ADD38R,0.023622047244094488X0.074803149606299218*%
%ADD39R,0.062992125984251982X0.062992125984251982*%
%ADD40R,0.074803149606299218X0.023622047244094488*%
%ADD41O,0.066929133858267723X0.066929133858267723*%
%ADD42R,0.066929133858267723X0.066929133858267723*%
%ADD43C,0.066929133858267723*%
%ADD44C,0.023622047244094488*%
%ADD45C,0.005905511811023622*%
D10*
G36*
X0002124035Y0002412157D02*
G01*
X0002124991Y0002412015D01*
X0002125927Y0002411780D01*
X0002126837Y0002411455D01*
X0002127710Y0002411042D01*
X0002128539Y0002410545D01*
X0002129314Y0002409970D01*
X0002130030Y0002409321D01*
X0002130679Y0002408606D01*
X0002131254Y0002407830D01*
X0002131751Y0002407001D01*
X0002132164Y0002406128D01*
X0002132489Y0002405219D01*
X0002132724Y0002404282D01*
X0002132865Y0002403326D01*
X0002132913Y0002402362D01*
X0002132913Y0002353543D01*
X0002132865Y0002352578D01*
X0002132724Y0002351623D01*
X0002132489Y0002350686D01*
X0002132164Y0002349776D01*
X0002131751Y0002348903D01*
X0002131254Y0002348075D01*
X0002130679Y0002347299D01*
X0002130030Y0002346583D01*
X0002129314Y0002345934D01*
X0002128539Y0002345359D01*
X0002127710Y0002344862D01*
X0002126837Y0002344450D01*
X0002125927Y0002344124D01*
X0002124991Y0002343889D01*
X0002124035Y0002343748D01*
X0002123070Y0002343700D01*
X0002056141Y0002343700D01*
X0002055176Y0002343748D01*
X0002054221Y0002343889D01*
X0002053284Y0002344124D01*
X0002052375Y0002344450D01*
X0002051501Y0002344862D01*
X0002050673Y0002345359D01*
X0002049897Y0002345934D01*
X0002049182Y0002346583D01*
X0002048533Y0002347299D01*
X0002047957Y0002348075D01*
X0002047461Y0002348903D01*
X0002047048Y0002349776D01*
X0002046723Y0002350686D01*
X0002046488Y0002351623D01*
X0002046346Y0002352578D01*
X0002046299Y0002353543D01*
X0002046299Y0002402362D01*
X0002046346Y0002403326D01*
X0002046488Y0002404282D01*
X0002046723Y0002405219D01*
X0002047048Y0002406128D01*
X0002047461Y0002407001D01*
X0002047957Y0002407830D01*
X0002048533Y0002408606D01*
X0002049182Y0002409321D01*
X0002049897Y0002409970D01*
X0002050673Y0002410545D01*
X0002051501Y0002411042D01*
X0002052375Y0002411455D01*
X0002053284Y0002411780D01*
X0002054221Y0002412015D01*
X0002055176Y0002412157D01*
X0002056141Y0002412204D01*
X0002123070Y0002412204D01*
X0002124035Y0002412157D01*
X0002124035Y0002412157D01*
G37*
D11*
X0002089606Y0002377952D03*
D12*
X0002089606Y0002477952D03*
X0002089606Y0002577952D03*
X0002089606Y0002677952D03*
X0002089606Y0002777952D03*
D13*
X0001769842Y0002728110D03*
D14*
X0001769842Y0002428110D03*
D15*
X0002329606Y0002617952D03*
X0002379606Y0002617952D03*
X0002429606Y0002617952D03*
D13*
X0002329606Y0002777952D03*
D16*
X0002408346Y0002777952D03*
D13*
X0002635196Y0002783385D03*
X0002635196Y0002586535D03*
D17*
X0002309606Y0002517952D03*
X0002309606Y0002467952D03*
X0002309606Y0002417952D03*
X0002309606Y0002367952D03*
X0002502913Y0002367952D03*
X0002502913Y0002417952D03*
X0002502913Y0002467952D03*
X0002502913Y0002517952D03*
D18*
X0002709606Y0002464488D03*
D19*
X0002609606Y0002464488D03*
D14*
X0001895826Y0002476535D03*
D13*
X0001895826Y0002776535D03*
D20*
X0002587625Y0002348649D03*
X0002209606Y0002607952D03*
D21*
X0002709606Y0002512125D02*
X0002635196Y0002586535D01*
X0002709606Y0002464488D02*
X0002709606Y0002512125D01*
X0002329606Y0002678976D02*
X0002359291Y0002708661D01*
X0002329606Y0002617952D02*
X0002329606Y0002678976D01*
X0002359291Y0002708661D02*
X0002513070Y0002708661D01*
X0002502913Y0002577322D02*
X0002573661Y0002648070D01*
X0002502913Y0002517952D02*
X0002502913Y0002577322D01*
X0002513070Y0002708661D02*
X0002573661Y0002648070D01*
X0002573661Y0002648070D02*
X0002635196Y0002586535D01*
X0001847401Y0002738110D02*
X0001895826Y0002786535D01*
X0001769842Y0002738110D02*
X0001847401Y0002738110D01*
X0002294173Y0002617952D02*
X0002229606Y0002682519D01*
X0002329606Y0002617952D02*
X0002294173Y0002617952D01*
X0002229606Y0002682519D02*
X0002229606Y0002747952D01*
X0002199606Y0002777952D02*
X0002089606Y0002777952D01*
X0002229606Y0002747952D02*
X0002199606Y0002777952D01*
X0001897244Y0002777952D02*
X0001895826Y0002776535D01*
X0002089606Y0002777952D02*
X0001897244Y0002777952D01*
X0002441889Y0002367952D02*
X0002429606Y0002380236D01*
X0002502913Y0002367952D02*
X0002441889Y0002367952D01*
X0002429606Y0002557952D02*
X0002429606Y0002617952D01*
X0002429606Y0002380236D02*
X0002429606Y0002557952D01*
X0002590654Y0002783385D02*
X0002516087Y0002857952D01*
X0002635196Y0002783385D02*
X0002590654Y0002783385D01*
X0002329606Y0002822494D02*
X0002329606Y0002777952D01*
X0002365064Y0002857952D02*
X0002329606Y0002822494D01*
X0002516087Y0002857952D02*
X0002365064Y0002857952D01*
X0002145039Y0002332519D02*
X0002099606Y0002377952D01*
X0002159606Y0002317952D02*
X0002145039Y0002332519D01*
X0002389606Y0002317952D02*
X0002159606Y0002317952D01*
X0002441889Y0002367952D02*
X0002439606Y0002367952D01*
X0002439606Y0002367952D02*
X0002389606Y0002317952D01*
X0002285064Y0002777952D02*
X0002202464Y0002860552D01*
X0002329606Y0002777952D02*
X0002285064Y0002777952D01*
X0002202464Y0002860552D02*
X0001784406Y0002860552D01*
X0001784406Y0002860552D02*
X0001682406Y0002758552D01*
X0001682406Y0002758552D02*
X0001682406Y0002396952D01*
X0001682406Y0002396952D02*
X0001733406Y0002345952D01*
X0002042362Y0002377952D02*
X0002089606Y0002377952D01*
X0002010362Y0002345952D02*
X0002042362Y0002377952D01*
X0001733406Y0002345952D02*
X0002010362Y0002345952D01*
X0002606141Y0002467952D02*
X0002609606Y0002464488D01*
X0002502913Y0002467952D02*
X0002606141Y0002467952D01*
X0002609606Y0002407401D02*
X0002609606Y0002464488D01*
X0002637480Y0002379527D02*
X0002609606Y0002407401D01*
X0002463464Y0002777952D02*
X0002408346Y0002777952D01*
X0002525354Y0002777952D02*
X0002463464Y0002777952D01*
X0002691181Y0002379527D02*
X0002637480Y0002379527D01*
X0002691181Y0002379527D02*
X0002731181Y0002379527D01*
X0002731181Y0002379527D02*
X0002780708Y0002429055D01*
X0002780708Y0002522598D02*
X0002637283Y0002666023D01*
X0002780708Y0002429055D02*
X0002780708Y0002522598D01*
X0002637283Y0002666023D02*
X0002525354Y0002777952D01*
X0002149606Y0002477952D02*
X0002099606Y0002477952D01*
X0002309606Y0002417952D02*
X0002209606Y0002417952D01*
X0002209606Y0002417952D02*
X0002149606Y0002477952D01*
X0001801338Y0002396614D02*
X0001928267Y0002396614D01*
X0001769842Y0002428110D02*
X0001801338Y0002396614D01*
X0002009606Y0002477952D02*
X0002089606Y0002477952D01*
X0001928267Y0002396614D02*
X0002009606Y0002477952D01*
X0002309212Y0002467559D02*
X0002309606Y0002467952D01*
X0002308188Y0002466535D02*
X0002309606Y0002467952D01*
X0002099606Y0002577952D02*
X0002129606Y0002577952D01*
X0002239606Y0002467952D02*
X0002309606Y0002467952D01*
X0002129606Y0002577952D02*
X0002239606Y0002467952D01*
X0001895826Y0002476535D02*
X0001997244Y0002577952D01*
X0001997244Y0002577952D02*
X0002089606Y0002577952D01*
X0002502913Y0002417952D02*
X0002544645Y0002417952D01*
X0002544645Y0002417952D02*
X0002563937Y0002398661D01*
X0002563937Y0002398661D02*
X0002563937Y0002372338D01*
X0002563937Y0002372338D02*
X0002587625Y0002348649D01*
X0002176141Y0002641417D02*
X0002209606Y0002607952D01*
X0002139606Y0002677952D02*
X0002209606Y0002607952D01*
X0002089606Y0002677952D02*
X0002139606Y0002677952D01*
X0002370629Y0002517952D02*
X0002309606Y0002517952D01*
X0002379606Y0002526929D02*
X0002370629Y0002517952D01*
X0002379606Y0002617952D02*
X0002379606Y0002526929D01*
G04 next file*
G04 #@! TF.GenerationSoftware,KiCad,Pcbnew,(5.1.2)-2*
G04 #@! TF.CreationDate,2019-06-15T17:22:33+01:00*
G04 #@! TF.ProjectId,AS5600-breakout,41533536-3030-42d6-9272-65616b6f7574,rev?*
G04 #@! TF.SameCoordinates,Original*
G04 #@! TF.FileFunction,Profile,NP*
G04 Gerber Fmt 4.6, Leading zero omitted, Abs format (unit mm)*
G04 Created by KiCad (PCBNEW (5.1.2)-2) date 2019-06-15 17:22:33*
G04 APERTURE LIST*
G04 APERTURE END LIST*
D32*
X0002379606Y0002907952D02*
X0002819606Y0002907952D01*
X0002139498Y0002908278D02*
X0001639606Y0002907952D01*
X0002139498Y0002908278D02*
G75*
G02X0002379606Y0002907952I0000120108J0000039674D01*
G01*
X0002349606Y0002277952D02*
G75*
G02X0002169606Y0002277952I-0000089999J-0000069999D01*
G01*
X0002149606Y0002277952D02*
X0002139606Y0002277952D01*
X0002149606Y0002277952D02*
X0002169606Y0002277952D01*
X0001639606Y0002277952D02*
X0001639606Y0002907952D01*
X0002139606Y0002277952D02*
X0001639606Y0002277952D01*
X0002819606Y0002277952D02*
X0002349606Y0002277952D01*
X0002819606Y0002907952D02*
X0002819606Y0002277952D01*
G04 next file*
G04 #@! TF.GenerationSoftware,KiCad,Pcbnew,(5.1.2)-2*
G04 #@! TF.CreationDate,2019-06-15T15:38:31+01:00*
G04 #@! TF.ProjectId,AS5600-breakout,41533536-3030-42d6-9272-65616b6f7574,rev?*
G04 #@! TF.SameCoordinates,Original*
G04 #@! TF.FileFunction,Copper,L2,Bot*
G04 #@! TF.FilePolarity,Positive*
G04 Gerber Fmt 4.6, Leading zero omitted, Abs format (unit mm)*
G04 Created by KiCad (PCBNEW (5.1.2)-2) date 2019-06-15 15:38:31*
G04 APERTURE LIST*
G04 APERTURE END LIST*
D33*
G36*
X0001848445Y0001546015D02*
G01*
X0001849400Y0001545873D01*
X0001850337Y0001545639D01*
X0001851246Y0001545313D01*
X0001852120Y0001544900D01*
X0001852948Y0001544404D01*
X0001853724Y0001543828D01*
X0001854440Y0001543180D01*
X0001855088Y0001542464D01*
X0001855664Y0001541688D01*
X0001856160Y0001540860D01*
X0001856573Y0001539987D01*
X0001856898Y0001539077D01*
X0001857133Y0001538140D01*
X0001857275Y0001537185D01*
X0001857322Y0001536220D01*
X0001857322Y0001487401D01*
X0001857275Y0001486436D01*
X0001857133Y0001485481D01*
X0001856898Y0001484544D01*
X0001856573Y0001483635D01*
X0001856160Y0001482761D01*
X0001855664Y0001481933D01*
X0001855088Y0001481157D01*
X0001854440Y0001480441D01*
X0001853724Y0001479793D01*
X0001852948Y0001479217D01*
X0001852120Y0001478721D01*
X0001851246Y0001478308D01*
X0001850337Y0001477982D01*
X0001849400Y0001477748D01*
X0001848445Y0001477606D01*
X0001847480Y0001477559D01*
X0001780551Y0001477559D01*
X0001779586Y0001477606D01*
X0001778630Y0001477748D01*
X0001777694Y0001477982D01*
X0001776784Y0001478308D01*
X0001775911Y0001478721D01*
X0001775082Y0001479217D01*
X0001774307Y0001479793D01*
X0001773591Y0001480441D01*
X0001772942Y0001481157D01*
X0001772367Y0001481933D01*
X0001771870Y0001482761D01*
X0001771457Y0001483635D01*
X0001771132Y0001484544D01*
X0001770897Y0001485481D01*
X0001770756Y0001486436D01*
X0001770708Y0001487401D01*
X0001770708Y0001536220D01*
X0001770756Y0001537185D01*
X0001770897Y0001538140D01*
X0001771132Y0001539077D01*
X0001771457Y0001539987D01*
X0001771870Y0001540860D01*
X0001772367Y0001541688D01*
X0001772942Y0001542464D01*
X0001773591Y0001543180D01*
X0001774307Y0001543828D01*
X0001775082Y0001544404D01*
X0001775911Y0001544900D01*
X0001776784Y0001545313D01*
X0001777694Y0001545639D01*
X0001778630Y0001545873D01*
X0001779586Y0001546015D01*
X0001780551Y0001546062D01*
X0001847480Y0001546062D01*
X0001848445Y0001546015D01*
X0001848445Y0001546015D01*
G37*
D34*
X0001814015Y0001511811D03*
D35*
X0001814015Y0001611811D03*
X0001814015Y0001711811D03*
X0001814015Y0001811810D03*
X0001814015Y0001911811D03*
D36*
X0001494251Y0001861968D03*
D37*
X0001494251Y0001561968D03*
D38*
X0002054015Y0001751810D03*
X0002104015Y0001751810D03*
X0002154015Y0001751810D03*
D36*
X0002054015Y0001911811D03*
D39*
X0002132755Y0001911811D03*
D36*
X0002359606Y0001917244D03*
X0002359606Y0001720393D03*
D40*
X0002034015Y0001651811D03*
X0002034015Y0001601811D03*
X0002034015Y0001551811D03*
X0002034015Y0001501811D03*
X0002227322Y0001501811D03*
X0002227322Y0001551811D03*
X0002227322Y0001601811D03*
X0002227322Y0001651811D03*
D41*
X0002434015Y0001598346D03*
D42*
X0002334015Y0001598346D03*
D37*
X0001620236Y0001610393D03*
D36*
X0001620236Y0001910393D03*
D43*
X0002312035Y0001482507D03*
X0001934015Y0001741811D03*
D44*
X0002434015Y0001645984D02*
X0002359606Y0001720393D01*
X0002434015Y0001598346D02*
X0002434015Y0001645984D01*
X0002054015Y0001812834D02*
X0002083700Y0001842519D01*
X0002054015Y0001751810D02*
X0002054015Y0001812834D01*
X0002083700Y0001842519D02*
X0002237480Y0001842519D01*
X0002227322Y0001711181D02*
X0002298070Y0001781929D01*
X0002227322Y0001651811D02*
X0002227322Y0001711181D01*
X0002237480Y0001842519D02*
X0002298070Y0001781929D01*
X0002298070Y0001781929D02*
X0002359606Y0001720393D01*
X0001571811Y0001871968D02*
X0001620236Y0001920393D01*
X0001494251Y0001871968D02*
X0001571811Y0001871968D01*
X0002018582Y0001751810D02*
X0001954015Y0001816377D01*
X0002054015Y0001751810D02*
X0002018582Y0001751810D01*
X0001954015Y0001816377D02*
X0001954015Y0001881811D01*
X0001924015Y0001911811D02*
X0001814015Y0001911811D01*
X0001954015Y0001881811D02*
X0001924015Y0001911811D01*
X0001621653Y0001911811D02*
X0001620236Y0001910393D01*
X0001814015Y0001911811D02*
X0001621653Y0001911811D01*
X0002166299Y0001501811D02*
X0002154015Y0001514094D01*
X0002227322Y0001501811D02*
X0002166299Y0001501811D01*
X0002154015Y0001691810D02*
X0002154015Y0001751810D01*
X0002154015Y0001514094D02*
X0002154015Y0001691810D01*
X0002315064Y0001917244D02*
X0002240497Y0001991811D01*
X0002359606Y0001917244D02*
X0002315064Y0001917244D01*
X0002054015Y0001956353D02*
X0002054015Y0001911811D01*
X0002089473Y0001991811D02*
X0002054015Y0001956353D01*
X0002240497Y0001991811D02*
X0002089473Y0001991811D01*
X0001869448Y0001466377D02*
X0001824015Y0001511811D01*
X0001884015Y0001451811D02*
X0001869448Y0001466377D01*
X0002114015Y0001451811D02*
X0001884015Y0001451811D01*
X0002166299Y0001501811D02*
X0002164015Y0001501811D01*
X0002164015Y0001501811D02*
X0002114015Y0001451811D01*
X0002009473Y0001911811D02*
X0001926873Y0001994411D01*
X0002054015Y0001911811D02*
X0002009473Y0001911811D01*
X0001926873Y0001994411D02*
X0001508815Y0001994411D01*
X0001508815Y0001994411D02*
X0001406815Y0001892411D01*
X0001406815Y0001892411D02*
X0001406815Y0001530811D01*
X0001406815Y0001530811D02*
X0001457815Y0001479810D01*
X0001766771Y0001511811D02*
X0001814015Y0001511811D01*
X0001734771Y0001479810D02*
X0001766771Y0001511811D01*
X0001457815Y0001479810D02*
X0001734771Y0001479810D01*
X0002330551Y0001601811D02*
X0002334015Y0001598346D01*
X0002227322Y0001601811D02*
X0002330551Y0001601811D01*
X0002334015Y0001541259D02*
X0002334015Y0001598346D01*
X0002361889Y0001513385D02*
X0002334015Y0001541259D01*
X0002187874Y0001911811D02*
X0002132755Y0001911811D01*
X0002249763Y0001911811D02*
X0002187874Y0001911811D01*
X0002415590Y0001513385D02*
X0002361889Y0001513385D01*
X0002415590Y0001513385D02*
X0002455590Y0001513385D01*
X0002455590Y0001513385D02*
X0002505118Y0001562913D01*
X0002505118Y0001656456D02*
X0002361692Y0001799881D01*
X0002505118Y0001562913D02*
X0002505118Y0001656456D01*
X0002361692Y0001799881D02*
X0002249763Y0001911811D01*
X0001874015Y0001611811D02*
X0001824015Y0001611811D01*
X0002034015Y0001551811D02*
X0001934015Y0001551811D01*
X0001934015Y0001551811D02*
X0001874015Y0001611811D01*
X0001525747Y0001530472D02*
X0001652677Y0001530472D01*
X0001494251Y0001561968D02*
X0001525747Y0001530472D01*
X0001734015Y0001611811D02*
X0001814015Y0001611811D01*
X0001652677Y0001530472D02*
X0001734015Y0001611811D01*
X0002033622Y0001601417D02*
X0002034015Y0001601811D01*
X0002032598Y0001600393D02*
X0002034015Y0001601811D01*
X0001824015Y0001711811D02*
X0001854015Y0001711811D01*
X0001964015Y0001601811D02*
X0002034015Y0001601811D01*
X0001854015Y0001711811D02*
X0001964015Y0001601811D01*
X0001620236Y0001610393D02*
X0001721653Y0001711811D01*
X0001721653Y0001711811D02*
X0001814015Y0001711811D01*
X0002227322Y0001551811D02*
X0002269055Y0001551811D01*
X0002269055Y0001551811D02*
X0002288346Y0001532519D01*
X0002288346Y0001532519D02*
X0002288346Y0001506196D01*
X0002288346Y0001506196D02*
X0002312035Y0001482507D01*
X0001900551Y0001775275D02*
X0001934015Y0001741811D01*
X0001864015Y0001811810D02*
X0001934015Y0001741811D01*
X0001814015Y0001811810D02*
X0001864015Y0001811810D01*
X0002095039Y0001651811D02*
X0002034015Y0001651811D01*
X0002104015Y0001660787D02*
X0002095039Y0001651811D01*
X0002104015Y0001751810D02*
X0002104015Y0001660787D01*
G04 next file*
G04 #@! TF.GenerationSoftware,KiCad,Pcbnew,(5.1.2)-2*
G04 #@! TF.CreationDate,2019-06-15T17:22:33+01:00*
G04 #@! TF.ProjectId,AS5600-breakout,41533536-3030-42d6-9272-65616b6f7574,rev?*
G04 #@! TF.SameCoordinates,Original*
G04 #@! TF.FileFunction,Profile,NP*
G04 Gerber Fmt 4.6, Leading zero omitted, Abs format (unit mm)*
G04 Created by KiCad (PCBNEW (5.1.2)-2) date 2019-06-15 17:22:33*
G04 APERTURE LIST*
G04 APERTURE END LIST*
D45*
X0002104015Y0002041811D02*
X0002544015Y0002041810D01*
X0001863907Y0002042136D02*
X0001364015Y0002041810D01*
X0001863907Y0002042136D02*
G75*
G02X0002104015Y0002041811I0000120108J0000039674D01*
G01*
X0002074015Y0001411810D02*
G75*
G02X0001894015Y0001411810I-0000089999J-0000069999D01*
G01*
X0001874015Y0001411811D02*
X0001864015Y0001411811D01*
X0001874015Y0001411811D02*
X0001894015Y0001411811D01*
X0001364015Y0001411811D02*
X0001364015Y0002041810D01*
X0001864015Y0001411811D02*
X0001364015Y0001411811D01*
X0002544015Y0001411811D02*
X0002074015Y0001411810D01*
X0002544015Y0002041810D02*
X0002544015Y0001411811D01*
M02*