%MOIN*%
%OFA0B0*%
%FSLAX44Y44*%
%IPPOS*%
%LPD*%
%ADD10C,0*%
D10*
X00019840Y00012277D02*
X00019840Y00012277D01*
X00020009Y00012290D01*
X00020174Y00012328D01*
X00020332Y00012389D01*
X00020479Y00012473D01*
X00020612Y00012579D01*
X00020728Y00012702D01*
X00020824Y00012842D01*
X00020898Y00012994D01*
X00020949Y00013156D01*
X00020976Y00013323D01*
X00020977Y00013493D01*
X00020954Y00013661D01*
X00020905Y00013823D01*
X00020833Y00013976D01*
X00020740Y00014118D01*
X00025440Y00014118D01*
X00025440Y00020418D01*
X00021040Y00020418D01*
X00021081Y00020577D01*
X00021102Y00020741D01*
X00021102Y00020905D01*
X00021079Y00021069D01*
X00021036Y00021228D01*
X00020973Y00021380D01*
X00020890Y00021523D01*
X00020789Y00021653D01*
X00020672Y00021770D01*
X00020542Y00021870D01*
X00020399Y00021952D01*
X00020246Y00022015D01*
X00020087Y00022058D01*
X00019924Y00022080D01*
X00019759Y00022080D01*
X00019595Y00022059D01*
X00019436Y00022016D01*
X00019284Y00021954D01*
X00019141Y00021872D01*
X00019009Y00021772D01*
X00018892Y00021656D01*
X00018791Y00021526D01*
X00018708Y00021383D01*
X00018644Y00021231D01*
X00018601Y00021072D01*
X00018578Y00020909D01*
X00018577Y00020744D01*
X00018597Y00020580D01*
X00018639Y00020421D01*
X00013640Y00020418D01*
X00013640Y00014118D01*
X00018940Y00014118D01*
X00018846Y00013976D01*
X00018774Y00013823D01*
X00018726Y00013661D01*
X00018702Y00013493D01*
X00018703Y00013323D01*
X00018730Y00013156D01*
X00018781Y00012994D01*
X00018855Y00012842D01*
X00018952Y00012702D01*
X00019068Y00012579D01*
X00019200Y00012473D01*
X00019347Y00012389D01*
X00019505Y00012328D01*
X00019671Y00012290D01*
X00019840Y00012277D01*
X00022596Y00020939D02*
X00022596Y00020939D01*
X00022765Y00020951D01*
X00022930Y00020989D01*
X00023088Y00021051D01*
X00023235Y00021135D01*
X00023368Y00021240D01*
X00023484Y00021364D01*
X00023580Y00021503D01*
X00023654Y00021656D01*
X00023705Y00021817D01*
X00023732Y00021985D01*
X00023733Y00022154D01*
X00023710Y00022322D01*
X00023661Y00022484D01*
X00023589Y00022638D01*
X00023496Y00022779D01*
X00028196Y00022779D01*
X00028196Y00029079D01*
X00023796Y00029079D01*
X00023837Y00029238D01*
X00023858Y00029402D01*
X00023857Y00029567D01*
X00023835Y00029730D01*
X00023792Y00029889D01*
X00023729Y00030042D01*
X00023646Y00030184D01*
X00023545Y00030315D01*
X00023428Y00030431D01*
X00023297Y00030531D01*
X00023155Y00030614D01*
X00023002Y00030677D01*
X00022843Y00030719D01*
X00022680Y00030741D01*
X00022515Y00030741D01*
X00022351Y00030720D01*
X00022192Y00030678D01*
X00022040Y00030615D01*
X00021896Y00030533D01*
X00021765Y00030433D01*
X00021648Y00030317D01*
X00021547Y00030187D01*
X00021464Y00030045D01*
X00021400Y00029893D01*
X00021357Y00029734D01*
X00021334Y00029570D01*
X00021333Y00029405D01*
X00021353Y00029242D01*
X00021394Y00029082D01*
X00016396Y00029079D01*
X00016396Y00022779D01*
X00021696Y00022779D01*
X00021602Y00022638D01*
X00021530Y00022484D01*
X00021482Y00022322D01*
X00021458Y00022154D01*
X00021459Y00021985D01*
X00021486Y00021817D01*
X00021537Y00021656D01*
X00021611Y00021503D01*
X00021708Y00021364D01*
X00021823Y00021240D01*
X00021956Y00021135D01*
X00022103Y00021051D01*
X00022261Y00020989D01*
X00022427Y00020951D01*
X00022596Y00020939D01*
M02*